<?xml version="1.0" standalone="no"?><!DOCTYPE svg PUBLIC "-//W3C//DTD SVG 1.1//EN" "http://www.w3.org/Graphics/SVG/1.1/DTD/svg11.dtd"><svg t="1586142661116" class="icon" viewBox="0 0 1024 1024" version="1.1" xmlns="http://www.w3.org/2000/svg" p-id="7902" xmlns:xlink="http://www.w3.org/1999/xlink" width="32" height="32"><defs><style type="text/css"></style></defs><path d="M681.92 672.576L969.408 960H54.624l287.424-287.424L512 804.096l169.92-131.52z m25.536-19.744L992 937.376V432.608l-284.544 220.224z m264.384-245.056L546.816 56.064c-19.52-16.16-50.112-16.16-69.632 0L52.16 407.776 512 763.936l459.84-356.16zM32 432.64v504.768L316.544 652.8 32 432.608z m507.232-110.88a115.296 115.296 0 0 1 162.944 0 115.328 115.328 0 0 1 0 162.88l-190.08 190.08-190.08-190.08a115.296 115.296 0 0 1 0-162.88 115.328 115.328 0 0 1 162.944 0l27.136 27.136 27.136-27.136z" p-id="7903" fill="#ffffff"></path></svg>