<?xml version="1.0" standalone="no"?><!DOCTYPE svg PUBLIC "-//W3C//DTD SVG 1.1//EN" "http://www.w3.org/Graphics/SVG/1.1/DTD/svg11.dtd"><svg t="1581319640247" class="icon" viewBox="0 0 1024 1024" version="1.1" xmlns="http://www.w3.org/2000/svg" p-id="13349" xmlns:xlink="http://www.w3.org/1999/xlink" width="32" height="32"><defs><style type="text/css"></style></defs><path d="M610.461538 500.184615l256-257.96923c11.815385-11.815385 11.815385-29.538462 0-41.353847l-39.384615-41.353846c-11.815385-11.815385-29.538462-11.815385-41.353846 0L527.753846 417.476923c-7.876923 7.876923-19.692308 7.876923-27.569231 0L242.215385 157.538462c-11.815385-11.815385-29.538462-11.815385-41.353847 0l-41.353846 41.353846c-11.815385 11.815385-11.815385 29.538462 0 41.353846l257.969231 257.969231c7.876923 7.876923 7.876923 19.692308 0 27.56923L157.538462 785.723077c-11.815385 11.815385-11.815385 29.538462 0 41.353846l41.353846 41.353846c11.815385 11.815385 29.538462 11.815385 41.353846 0L498.215385 610.461538c7.876923-7.876923 19.692308-7.876923 27.56923 0l257.969231 257.969231c11.815385 11.815385 29.538462 11.815385 41.353846 0L866.461538 827.076923c11.815385-11.815385 11.815385-29.538462 0-41.353846L610.461538 527.753846c-7.876923-7.876923-7.876923-19.692308 0-27.569231z" p-id="13350" fill="#ffffff"></path></svg>