<?xml version="1.0" standalone="no"?><!DOCTYPE svg PUBLIC "-//W3C//DTD SVG 1.1//EN" "http://www.w3.org/Graphics/SVG/1.1/DTD/svg11.dtd"><svg t="1581667068152" class="icon" viewBox="0 0 1024 1024" version="1.1" xmlns="http://www.w3.org/2000/svg" p-id="1959" xmlns:xlink="http://www.w3.org/1999/xlink" width="32" height="32"><defs><style type="text/css"></style></defs><path d="M605.333333 772.672L533.333333 830.272V533.333333a21.333333 21.333333 0 0 0-42.666666 0v296.938667l-72-57.6a21.333333 21.333333 0 0 0-26.666667 33.322667l106.666667 85.333333a21.376 21.376 0 0 0 26.666666 0l106.666667-85.333333a21.333333 21.333333 0 1 0-26.666667-33.322667z" fill="#ffffff" p-id="1960"></path><path d="M810.666667 384c-1.130667 0-2.24 0-3.328 0.042667a298.496 298.496 0 0 0-565.418667-84.906667A213.333333 213.333333 0 0 0 256 725.333333h21.333333a21.333333 21.333333 0 0 0 0-42.666666h-21.333333a170.666667 170.666667 0 0 1 0-341.333334 21.333333 21.333333 0 0 0 19.712-13.12 255.786667 255.786667 0 0 1 491.370667 80.832 21.333333 21.333333 0 0 0 24.533333 19.626667A124.224 124.224 0 0 1 810.666667 426.666667a128 128 0 0 1 0 256h-64a21.333333 21.333333 0 0 0 0 42.666666h64a170.666667 170.666667 0 0 0 0-341.333333z" fill="#ffffff" p-id="1961"></path></svg>