<?xml version="1.0" standalone="no"?><!DOCTYPE svg PUBLIC "-//W3C//DTD SVG 1.1//EN" "http://www.w3.org/Graphics/SVG/1.1/DTD/svg11.dtd"><svg t="1582284040051" class="icon" viewBox="0 0 1024 1024" version="1.1" xmlns="http://www.w3.org/2000/svg" p-id="2022" xmlns:xlink="http://www.w3.org/1999/xlink" width="32" height="32"><defs><style type="text/css"></style></defs><path d="M955.076923 610.461538h-59.076923c-15.753846 0-29.538462 13.784615-29.538462 29.538462v196.923077c0 15.753846-13.784615 29.538462-29.538461 29.538461h-649.846154c-15.753846 0-29.538462-13.784615-29.538461-29.538461v-196.923077c0-15.753846-13.784615-29.538462-29.538462-29.538462h-59.076923c-15.753846 0-29.538462 13.784615-29.538462 29.538462V905.846154c0 43.323077 35.446154 78.769231 78.769231 78.769231h787.692308c43.323077 0 78.769231-35.446154 78.769231-78.769231V640c0-15.753846-13.784615-29.538462-29.538462-29.538462zM492.307692 740.430769c11.815385 11.815385 29.538462 11.815385 41.353846 0l265.846154-265.846154c11.815385-11.815385 11.815385-29.538462 0-41.353846l-41.353846-41.353846c-11.815385-11.815385-29.538462-11.815385-41.353846 0l-110.276923 110.276923c-11.815385 11.815385-33.476923 3.938462-33.476923-13.784615V68.923077C571.076923 53.169231 555.323077 39.384615 541.538462 39.384615h-59.076924c-15.753846 0-29.538462 13.784615-29.538461 29.538462v417.476923c0 17.723077-21.661538 25.6-33.476923 13.784615l-110.276923-110.276923c-11.815385-11.815385-29.538462-11.815385-41.353846 0L226.461538 433.230769c-11.815385 11.815385-11.815385 29.538462 0 41.353846L492.307692 740.430769z" p-id="2023" fill="#ffffff"></path></svg>