<?xml version="1.0" standalone="no"?><!DOCTYPE svg PUBLIC "-//W3C//DTD SVG 1.1//EN" "http://www.w3.org/Graphics/SVG/1.1/DTD/svg11.dtd"><svg t="1581668466504" class="icon" viewBox="0 0 1024 1024" version="1.1" xmlns="http://www.w3.org/2000/svg" p-id="4082" xmlns:xlink="http://www.w3.org/1999/xlink" width="32" height="32"><defs><style type="text/css"></style></defs><path d="M665.702672 358.447088a263.149382 263.149382 0 0 0-222.704244 125.943089A262.637418 262.637418 0 0 0 221.318112 358.447088 215.280769 215.280769 0 0 0 0.14976 581.663295c1.279909 94.457317 42.748976 198.641946 154.869043 290.283463A986.298219 986.298219 0 0 0 443.766374 1024a982.970455 982.970455 0 0 0 288.747571-152.053242c112.376049-91.641516 153.589134-195.826145 155.125025-290.283463A215.280769 215.280769 0 0 0 665.702672 358.447088z" fill="#F0A0F2" p-id="4083"></path><path d="M875.351839 505.380692A209.905149 209.905149 0 0 0 665.702672 358.447088a263.149382 263.149382 0 0 0-222.704244 125.943089A262.637418 262.637418 0 0 0 221.318112 358.447088 215.280769 215.280769 0 0 0 0.14976 581.663295c1.279909 94.457317 42.748976 198.641946 154.869043 290.283463a642.514542 642.514542 0 0 0 53.244233 38.909247h13.823022c324.073072 0.511964 593.622001-174.067685 653.265781-405.475313z" fill="#F5AEF4" p-id="4084"></path><path d="M101.262606 505.380692m-25.854171 0a25.854171 25.854171 0 1 0 51.708342 0 25.854171 25.854171 0 1 0-51.708342 0Z" fill="#FFFFFF" p-id="4085"></path><path d="M60.817468 587.294897c5.37562-30.973809 27.390062-37.373356 37.885319-25.598189s-7.423475 32.5097 6.655529 99.832937c12.287131 58.363871 40.189157 103.672665 39.421211 113.655959S98.702787 735.764393 76.944327 681.752214a185.58687 185.58687 0 0 1-16.126859-94.457317z" fill="#FFFFFF" p-id="4086"></path><path d="M947.28275 0.072443a90.873571 90.873571 0 0 0-76.794566 43.516921A90.873571 90.873571 0 0 0 793.693617 0.072443a74.234748 74.234748 0 0 0-76.794567 76.794567 132.086655 132.086655 0 0 0 53.756197 102.392755A341.223858 341.223858 0 0 0 870.488184 230.456143a341.223858 341.223858 0 0 0 99.832936-51.196378A132.086655 132.086655 0 0 0 1024.077317 76.86701a74.234748 74.234748 0 0 0-76.794567-76.794567z" fill="#BE92F1" p-id="4087"></path><path d="M1019.981607 51.268821A72.698857 72.698857 0 0 0 947.28275 0.072443a90.873571 90.873571 0 0 0-76.794566 43.516921A90.873571 90.873571 0 0 0 793.693617 0.072443a74.234748 74.234748 0 0 0-76.794567 76.794567 132.086655 132.086655 0 0 0 53.756197 102.392755c5.887583 4.607674 12.031149 9.215348 18.174714 13.311059H793.693617c112.120068-1.023928 204.785511-61.691635 226.28799-141.302003z" fill="#C1A0EF" p-id="4088"></path><path d="M751.968569 51.012839m-8.959366 0a8.959366 8.959366 0 1 0 17.918732 0 8.959366 8.959366 0 1 0-17.918732 0Z" fill="#FFFFFF" p-id="4089"></path><path d="M737.889565 79.426829c1.791873-10.751239 9.47133-13.055076 13.055076-8.703385s-2.559819 11.263203 2.303837 34.557555 14.84695 35.837464 14.84695 39.421211-17.150787-14.079004-25.598189-32.765682a61.691635 61.691635 0 0 1-4.607674-32.509699z" fill="#FFFFFF" p-id="4090"></path></svg>