<?xml version="1.0" standalone="no"?><!DOCTYPE svg PUBLIC "-//W3C//DTD SVG 1.1//EN" "http://www.w3.org/Graphics/SVG/1.1/DTD/svg11.dtd"><svg t="1581315048097" class="icon" viewBox="0 0 1024 1024" version="1.1" xmlns="http://www.w3.org/2000/svg" p-id="8507" width="32" height="32" xmlns:xlink="http://www.w3.org/1999/xlink"><defs><style type="text/css"></style></defs><path d="M512 128c192.426667 0 341.333333 128 341.333333 341.333333h-85.333333c0-128-91.093333-256-256-256-99.498667 0-170.666667 21.333333-234.666667 85.333334H384v85.333333H128V128h85.333333v106.666667C282.624 151.381333 398.208 128 512 128z m-42.666667 725.333333c-192.426667 0-341.333333-128-341.333333-341.333333h85.333333c0 128 91.093333 256 256 256 99.498667 0 170.666667-21.333333 234.666667-85.333333H597.333333v-85.333334h256v256h-85.333333v-106.666666c-69.290667 83.285333-184.874667 106.666667-298.666667 106.666666z" p-id="8508" fill="#fff"></path></svg>
