<?xml version="1.0" standalone="no"?><!DOCTYPE svg PUBLIC "-//W3C//DTD SVG 1.1//EN" "http://www.w3.org/Graphics/SVG/1.1/DTD/svg11.dtd"><svg t="1582285876882" class="icon" viewBox="0 0 1024 1024" version="1.1" xmlns="http://www.w3.org/2000/svg" p-id="2818" xmlns:xlink="http://www.w3.org/1999/xlink" width="32" height="32"><defs><style type="text/css"></style></defs><path d="M704 341.333333a64 64 0 1 0 0-128 64 64 0 0 0 0 128z m0 85.333334a149.333333 149.333333 0 1 1 0-298.666667 149.333333 149.333333 0 0 1 0 298.666667z m0 384a64 64 0 1 0 0-128 64 64 0 0 0 0 128z m0 85.333333a149.333333 149.333333 0 1 1 0-298.666667 149.333333 149.333333 0 0 1 0 298.666667z m-426.666667-341.333333a64 64 0 1 0 0-128 64 64 0 0 0 0 128z m96.469334 50.005333a149.333333 149.333333 0 1 1 11.648-217.002667L613.546667 256l42.666666 73.898667-231.893333 133.888a150.186667 150.186667 0 0 1-3.712 69.333333l222.08 128.213333-42.666667 73.898667-226.133333-130.56z" p-id="2819" fill="#ffffff"></path></svg>