<?xml version="1.0" standalone="no"?><!DOCTYPE svg PUBLIC "-//W3C//DTD SVG 1.1//EN" "http://www.w3.org/Graphics/SVG/1.1/DTD/svg11.dtd" ><svg xmlns="http://www.w3.org/2000/svg"><metadata></metadata><defs><font id="fonteditor" horiz-adv-x="1000"><font-face font-family="e¹kcbKù-k'vkciw {" font-weight="400" font-stretch="normal" units-per-em="1000" panose-1="2 0 5 0 0 0 0 0 0 0" ascent="883" descent="-227" x-height="0" bbox="-19 -152 998 852" underline-thickness="0" underline-position="0" unicode-range="U+0022-ff5e" /><missing-glyph horiz-adv-x="1000"  /><glyph glyph-name="quotedbl" unicode="&quot;" d="M157 430 L153 439 Q148 448 143.5 464 Q139 480 131 545 L128 569 L128 578 Q134 589 129 600 Q128 602 127 604 Q118 632 136 646 Q152 639 171 644 Q173 644 174 645 Q204 646 231 624 Q230 614 227 614 Q209 594 204 576 Q204 569 202 565 Q200 557 200 553 Q198 532 190.5 520.5 Q183 509 176 480 Q175 474 173.5 468 Q172 462 172 452 L172 448 Q171 439 157 430 ZM43 436 L35 436 Q32 440 28 445 L25 464 Q20 494 20 501 Q20 527 13 562 Q13 565 12 569 Q12 578 14 581 Q19 598 18 612 Q18 617 19 620 Q25 631 41 634.5 Q57 638 66 630 Q73 623 80 616 L106 590 Q119 577 107 568 Q104 565 92 559 Q78 555 66 532 Q64 530 64 528 Q57 509 54 488 Q52 476 48 455 L45 445 Q43 439 43 436 Z" /><glyph glyph-name="comma" unicode="," d="M36 -13 Q34 -13 29 -8 Q29 -5 30 -3 Q31 -1 31.5 0 Q32 1 34 1 Q41 2 41 7 L44 14 Q44 17 49 22 L51 27 Q52 29 55 40 Q55 42 56 44 Q64 56 65 63 Q66 64 66 70 Q67 72 67 74 L71 83 Q71 84 73 86 L73 96 Q74 101 74 107 Q74 110 69 113 L59 113 Q51 113 51 119 Q51 125 57 128 L66 130 Q68 130 74 133 L98 133 Q105 136 112 132 Q116 128 120.5 128 Q125 128 132 122 Q144 111 147 99 Q150 93 149 90 L147 85 Q146 80 141 78 Q135 74 130 66 L126 61 Q123 55 120 53 Q119 53 117 49 L115 45 L101 30 Q86 15 77 12 L75 12 Q69 6 65 5 L54 -3 L48 -8 Q46 -10 38 -12 Q37 -13 36 -13 Z" /><glyph glyph-name="zero" unicode="0" d="M172 61 L162 61 Q143 61 139 62 Q132 63 111 75 L99 82 L81 96 L71 103 L63 114 L48 134 Q45 135 45 141 L43 147 Q43 155 41 160 Q37 169 41 178 Q43 183 41 186 L41 197 Q43 208 41 214 Q36 222 41 230 Q44 239 42 249 Q38 253 41 263 Q43 268 43 278 Q43 293 47 304 Q47 305 48 307 Q51 313 51 315 Q53 325 53.5 329.5 Q54 334 56 343 Q58 343 58 346 Q55 351 60 363 Q61 364 61 366 Q66 375 72 396 Q74 396 74 398 Q80 405 80 418 Q80 429 84 432 L84 437 Q85 437 85 441 Q91 447 93 456 Q94 459 95 463 Q99 470 106 485 Q106 489 108 491 L108 497 Q111 501 111 511 L117 529 Q128 547 133 554 L146 573 Q149 581 160 585 Q164 581 168 579 Q181 569 199 569 L228 569 Q237 567 241 561 Q242 557 242 554 Q241 548 234 548 Q230 546 226 545 Q217 542 213.5 542 Q210 542 208 542 Q205 539 204 539 L191 521 Q182 517 180 510 Q178 508 178 503 Q174 495 173 494 Q173 489 170 482 L162 464 L158 458 Q153 451 153 446.5 Q153 442 150 441 Q150 440 149 438 Q148 437 146 436 Q142 428 141 426 Q136 414 139 406 Q139 403 138 401 Q134 397 134 395 Q136 388 131 381 Q128 378 128 375 Q127 370 125 366 Q125 363 123 357 Q117 346 116 336 Q116 333 115 330 L112 323 Q107 313 107 307 L103 297 Q103 289 100 285 L100 276 Q100 268 97 262 Q97 259 96 257 Q91 242 92 231 Q92 229 91 227 Q87 221 89 210 Q90 209 90 208 Q90 201 88 199 L89 200 Q88 196 88 190 L88 181 Q88 177 90 174.5 Q92 172 92 154 Q92 144 96 140 L96 136 Q96 117 109 105 Q127 90 146 96 Q158 97 172 107 Q186 114 195 124 Q198 127 211 145 Q219 153 221 157 Q232 165 238 177 Q241 182 246 183 Q252 188 265 210 L269 217 L290 262 Q291 264 291 269 Q295 291 295 296 Q298 300 298 313 L298 318 Q298 320 299 321.5 Q300 323 300 325 L300 333 Q295 345 300 355 Q304 361 299 366 Q298 367 298 379 L298 398 Q295 404 295 414 Q295 417 294.5 420.5 Q294 424 292 426 Q292 428 291 431 Q291 438 284 442 Q280 447 272 451 Q270 452 268 453 Q257 462 250 472 L246 477 Q239 484 243 493 Q248 509 262 516 L269 522 Q273 524 276 527 Q292 537 306 531 L312 531 Q325 531 330 522 L335 519 L344 511 L356 490 L360 481 Q364 471 364 465 Q366 455 370 448 Q372 442 372 436 L372 431 Q372 421 375 417 Q375 409 377 401 Q379 393 380 386 Q377 372 379 358 Q380 352 380 346 Q380 332 377 327 Q375 325 375 319.5 Q375 314 373 310 Q372 308 372 302 Q372 292 368 283 Q366 279 364 276 Q359 268 359 265 Q359 258 357.5 257 Q356 256 354 254.5 Q352 253 352 252 L343 233 Q331 211 319 198 Q317 196 314 187 L292 164 L291 160 L283 152 Q277 148 260 131 L248 118 L238 109 Q217 85 192 71 L187 69 Q177 65 172 61 Z" /><glyph glyph-name="one" unicode="1" d="M55 50 Q53 52 51 55 L48 59 L39 64 Q33 65 27 74 L16 96 Q15 103 5 109 L10 116 Q10 117 14 121 Q14 123 16 127 Q18 131 18 138 Q23 147 27 157 L35 174 L38 182 Q42 189 44 201 Q44 208 49 214 Q56 242 65 263 L65 268 Q65 280 74 285 L79 291 L82 296 L81 295 Q81 312 81.5 318.5 Q82 325 84 329 Q90 342 92 350 Q97 369 100.5 374.5 Q104 380 108 394 Q109 396 110 399 L113 411 Q113 416 116 425 Q116 429 120 437 L122 442 L126 453 Q128 463 130 466 Q136 482 142 498 L151 521 Q154 524 154 529 Q154 532 156 538 L160 554 L164 562 Q168 573 169 577 Q170 579 170 581 Q175 593 171 600 L178 606 L182 608 Q195 608 203 603 Q206 602 208 601 L219 596 Q220 594 221 593 L225 591 Q235 581 231 566 Q230 565 230 562 Q230 555 225 543 Q225 541 224 539 Q222 533 222 528 Q222 519 219 513 Q216 510 216 505 Q214 498 209 492 Q206 484 202 476 L199 469 Q199 462 193 453.5 Q187 445 187 432 Q179 422 173 407 Q173 405 172 404 Q170 396 161 375 L157 359 Q155 352 152 346 Q149 334 143 322 L140 314 Q137 309 137 304.5 Q137 300 135 297 L132 291 Q126 281 126 273.5 Q126 266 122 260 Q122 257 121 255.5 Q120 254 119 250 Q111 234 110 230 Q110 228 109 226 Q109 221 107 219 Q106 214 103.5 209.5 Q101 205 101 197 Q93 184 90 171 Q90 168 89 166 Q88 160 86 154 Q86 152 85 150 Q82 147 82 143 L79 138 L80 139 Q80 138 78 135 Q74 128 75 124 Q75 122 74 120 Q72 114 72.5 112 Q73 110 73 109 L72 110 Q75 106 71 104 Q69 100 69 86 Q67 73 63 64 Q63 62 62 60 Q62 51 55 50 Z" /><glyph glyph-name="two" unicode="2" d="M230 69 Q229 69 227 70 Q223 72 221 72 L192 72 Q169 72 159 75 L123 75 Q115 75 110 77 Q104 79 98 76 Q89 67 76 72 Q67 72 63 81 L58 87 L55 93 Q55 101 47 109 L45 112 L46 110 Q36 115 36 127 Q28 148 28 158 Q35 167 42 168 Q44 168 45.5 168.5 Q47 169 49 170 Q56 175 64 175 Q67 175 69.5 175.5 Q72 176 73.5 176.5 Q75 177 77 178 Q83 178 91 186 Q93 188 94 191 L102 201 Q103 204 106 204 L113 211 Q115 212 117 214 Q128 224 129 225 Q135 228 141 238 Q149 251 162 257 L168 262 L181 270 Q183 271 195 289 Q197 294 205 301 Q215 305 220 312 L228 316 Q241 327 239 337 L239 344 Q242 346 245 349 L248 352 Q252 356 252 358 L264 370 Q269 375 269 379 Q270 385 272 388 Q284 407 285 417 Q285 424 293 424 Q294 425 296.5 425 Q299 425 300.5 426.5 Q302 428 301.5 434.5 Q301 441 306 451 Q314 460 312 471 Q312 480 315 486 Q320 491 318 499 Q316 500 316 507 Q318 513 316 519 Q314 525 316 533 L316 535 Q313 536 313 538 Q308 546 297 553 L290 553 Q287 555 276 555 Q271 556 259 551 Q257 550 254 550 Q243 550 229 540 L226 538 Q219 533 216 533 Q193 520 186 511 Q186 509 182 507 Q180 506 173 494 L169 486 Q165 483 165 477 Q164 473 163 469 Q165 464 167 460 L170 454 Q173 446 174 445 Q175 442 169 437.5 Q163 433 157 437 L148 440 Q144 441 140 443 L129 448 Q119 458 103 470 L95 477 Q94 477 90 481 L86 484 Q80 490 79 495 L74 502 Q72 507 75 511.5 Q78 516 85 516 Q92 516 95 520 Q139 559 166 573 Q169 576 173 576 L179 578 Q192 587 202 591 Q209 593 216 596 Q219 596 222 599 L298 599 Q302 599 313 594 Q317 592 318.5 591.5 Q320 591 321 591 Q333 591 343 583 Q348 580 353 578 L359 575 Q363 572 366 569 Q366 567 369 564 L378 546 Q381 535 381 520 L381 496 Q381 487 379 481 Q378 479 378 473.5 Q378 468 377 462 Q374 458 375 456.5 Q376 455 376.5 453.5 Q377 452 377 451 Q379 446 376 442 Q371 434 376 424 Q370 418 365 408 L341 370 L340 368 Q340 365 338 362 L331 350 Q329 346 327.5 343.5 Q326 341 302 311 Q298 307 297.5 304.5 Q297 302 285 288 L283 286 Q282 285 281 281 Q278 275 274 269 L262 254 Q258 248 253 242 L247 234 L239 224 Q229 212 220 208 L221 209 Q219 207 216 205 Q215 205 215 204 L190 180 L181 175 L173 169 L163 161 Q149 147 138 143 Q130 142 124 137 L118 134 Q115 131 115 127 Q119 125 125 125 L222 125 Q227 129 236 129 Q247 129 251.5 131.5 Q256 134 262 134 Q275 131 285 141 Q293 150 304 146 L310 143 Q320 139 326 139 Q332 137 342 137 L347 137 Q353 137 353 134 L357 132 Q359 129 362 129 Q373 118 364 108 Q351 94 334 90 Q328 84 319 82 L309 78 Q300 75 296 75 Q289 75 284 72 L261 72 Q260 72 254 70 Q252 69 250 69 Q242 66 230 69 Z" /><glyph glyph-name="three" unicode="3" d="M5 64 Q-7 74 -10 78 Q-19 84 -12 96 L-1 110 Q7 122 9 129 Q14 134 16 146 Q16 150 18 156 Q23 166 36 164 Q46 164 50 162 Q63 157 71 157 Q75 159 83 159 Q85 159 87 160 Q95 162 98 166 L125 181 Q144 194 153 207 Q162 213 175 228 L195 248 Q197 251 198 254 Q199 255 200 257 Q208 265 208 275 Q207 287 194.5 290.5 Q182 294 169 294 Q148 294 135 298 Q119 304 103 298 Q94 294 78 294 Q71 293 65 297 Q59 301 60 306 L64 367 Q63 373 66.5 383.5 Q70 394 82 396 Q85 398 89 398 Q91 398 92 399 Q99 399 101 401 Q124 424 133 442 Q141 457 150 467 Q165 494 154 521 Q152 522 151 524 Q144 533 134 534 Q122 534 106 542 Q103 544 100 546 Q95 547 91 551 L69 565 Q58 572 47 580 Q42 583 43 587.5 Q44 592 50 596 Q82 613 115 603 Q127 601 132 601 Q171 601 219 581 Q225 578 238 571 L253 547 Q257 539 257 525 Q255 505 255 495 L251 488 L241 475 Q224 458 218 444 Q214 436 199 423 Q195 419 192 416 Q182 400 166 390 Q150 380 141 365 Q138 359 146 355 L156 352 Q198 344 256 319 Q263 316 272 305 Q281 287 280 278 Q274 241 253 223 Q242 208 219 194 L190 173 L169 158 Q151 152 125 130 Q112 119 103 114 Q90 106 77 91 Q61 73 43.5 64 Q26 55 5 64 Z" /><glyph glyph-name="eight" unicode="8" d="M180 63 Q176 63 175 64 Q166 64 160 67.5 Q154 71 151.5 71 Q149 71 147 72 Q135 72 113 77 Q111 79 109 79 Q99 79 95 88 Q92 91 92 95 Q92 96 91 97 Q87 104 84 112 L80 116 Q79 118 78 120 Q74 125 63 134 Q54 141 51 148 Q46 163 38 171 L36 176 Q38 182 38 185 Q38 192 41 195 Q44 202 46 209 Q48 224 51 232 Q51 234 52 235 Q50 240 56 250 L61 256 Q66 261 68 274 Q71 277 81 293 L89 304 Q90 306 112 328 L118 334 Q120 338 124 340 Q133 346 138 351 L146 359 L153 365 Q157 367 160 370 Q165 373 159 379 L124 412 Q114 422 113 424 L110 428 Q106 432 100 434 Q94 434 94 441 Q94 442 91 451 L85 463 L83 470 Q79 476 80 481 Q80 484 76 488 Q75 489 75 498 Q76 509 70 525 Q66 533 70 542 Q70 543 72 545 L72 547 Q69 553 74 558 Q75 559 76 561 Q87 571 96 577 L106 584 L141 584 Q151 584 160 589 Q172 601 188 594 Q190 592 197 592 L245 592 Q253 592 259 589 L262 589 Q264 587 269 587 Q272 586 274 586 Q284 578 294 581 L307 574 Q319 568 323 564 L330 559 Q331 557 335 555 Q341 551 346 547 Q348 540 346 538 Q345 531 334 533 Q332 535 321 532 Q311 527 304 527 Q298 529 296 523 Q293 513 280 516 L233 516 Q231 516 229 517.5 Q227 519 224 519 Q223 519 221 520 Q217 520 213 522 Q209 524 205.5 524 Q202 524 198 525 L194 525 Q192 527 189 527 Q188 527 185.5 527.5 Q183 528 181 525 L172 512 Q168 496 168 494 Q165 485 167 476 Q168 469 168 462 L170 452 L173 441 Q179 437 175 432.5 Q171 428 177 424 L190 410 L195 405 Q198 402 206 404 Q220 410 239 422 Q244 423 247 427 L254 434 Q257 440 265 440 Q273 437 290 448 L316 461 Q332 467 345 480 Q351 486 354 486 Q365 489 374 489 Q386 489 392 481 Q394 479 400 471 L402 466 Q398 453 383 444 L377 439 L364 432 L358 432 Q354 434 349 432 Q347 431 345 431 Q335 423 326 426 Q324 426 321 423 L294 413 Q292 411 290 411 Q283 406 276 402 Q258 394 249 386 Q246 386 244 383 Q238 377 244 372 L255 365 Q267 360 274 353 Q291 343 307 333 L317 325 L332 312 Q351 293 359 278 Q362 269 362 266 L364 261 Q370 247 367 235 L367 230 Q366 226 364 222 L361 212 Q359 199 358 198 Q350 190 348.5 184.5 Q347 179 339 171 L330 157 L325 149 Q315 139 311 132 Q309 128 306 124 L292 99 Q288 97 287 94 L273 84 Q259 74 251 71 Q245 68 238 68 L229 68 Q220 68 215 64 Q201 57 180 63 ZM199 143 Q204 141 209 144 Q213 148 217 148 Q219 150 228 153 Q238 156 245 162 Q248 162 250 164 Q265 167 275 177 Q280 179 289 190 Q300 200 306 223 Q307 225 307 228 Q308 239 305 249 Q302 250 302 255 Q304 261 298 268 L295 274 Q289 283 282 288 Q264 309 245 322 Q236 330 222 337 Q222 339 220 340 Q212 346 201 351 Q194 355 187 349 Q186 349 183.5 346.5 Q181 344 176 344 Q175 345 173 346 Q157 329 151 325 L147 322 L141 317 Q139 316 137 316 L132 312 Q128 308 125 302 Q111 276 114 261 Q114 257 113 253.5 Q112 250 114 246 Q117 238 117 226 L119 224 Q120 222 120 220 Q120 216 122 214 L122 210 Q134 189 139 171 Q144 161 151 154 L156 148 Q165 143 170 145 L185 145 Q196 145 199 143 Z" /><glyph glyph-name="nine" unicode="9" d="M99 26 Q96 27 82 35 L77 41 Q69 51 73 59 L81 67 Q86 72 86 77 Q86 80 98 92 Q102 94 100 100 Q98 102 100 109 Q101 112 102 115 Q106 123 107 131 L114 146 Q118 147 118 153 Q118 167 126 176 Q132 182 132 191 Q132 195 133 196 Q136 199 137.5 204.5 Q139 210 139 212 Q139 218 144 223 Q146 225 146 229 Q142 238 147 246 Q150 249 150 251 Q155 264 156 269 Q159 273 159 278 Q158 285 163 298 Q164 305 167 310 Q168 311 169 313 Q174 318 176 330 Q173 333 171 333 Q169 335 167 333 L162 333 Q153 331 150 329 Q145 324 137 324 Q134 324 131 321 L112 314 Q102 312 94 313 Q74 321 66 331 L52 344 L48 349 L46 351 L39 359 Q34 365 34 372 Q34 375 32 379 Q28 386 30 395 Q32 400 30 404 Q28 416 32 425 Q33 430 33.5 435 Q34 440 37 446 Q38 448 38 454 L45 463 L49 474 L49 479 Q50 484 50 490 Q52 492 57 504 Q58 509 63 517 Q63 519 65 522 Q69 529 73 537 Q74 538 74 540 Q77 545 90 558 L100 566 Q101 569 106 565 Q110 563 111.5 564.5 Q113 566 127 569 Q129 569 130 570 Q137 570 142 575 L151 577 L159 580 L180 590 Q195 599 205 593 Q208 592 214 592 L227 592 Q238 592 244 589 Q251 589 260 580 Q261 579 276 570 Q283 566 289 562 Q293 560 298 555 Q306 546 296 537 Q288 529 280 532 Q277 532 276 532 Q275 529 272 529 Q269 529 263 528 L245 528 Q236 529 235 535 Q231 542 220 549 Q217 549 213 551 Q209 553 206 552 L202 552 Q195 549 184 549 L166 549 Q164 548 161 548 Q156 548 153 546 Q152 545 150 545 Q137 532 124 509 L117 491 L111 478 L105 462 L99 448 L94 430 Q93 429 91 428 Q93 408 83 398 Q81 391 83 384.5 Q85 378 85 372 Q82 367 85 362 Q86 355 90 352.5 Q94 350 101 353 Q121 360 133 369 Q141 373 147 379.5 Q153 386 155 386 L167 397 L175 403 Q186 414 192 415 L197 420 L208 432 Q209 434 210 436 Q217 443 217 448.5 Q217 454 219 458 Q220 459 220 461 Q219 471 226 477 Q230 483 230 489 L236 507 Q238 513 247 513 Q258 511 268 515 Q276 517 277 519 Q280 520 288 520 Q295 516 302 520 Q305 521 318 521 Q323 521 325 516 Q324 509 317 500 L306 484 Q301 479 301 476 Q299 472 297 469 Q292 462 291.5 461 Q291 460 290 456 Q287 450 283 444 Q280 440 278 434 L276 427 L276 419 Q276 415 271 415 L265 409 Q264 408 265 404 Q265 403 262 400 L262 398 Q260 396 260 394 Q257 390 258 383 L254 374 Q249 364 248 362 L244 353 L241 346 Q241 344 240 343 L236 332 Q234 326 234 324 Q234 316 231 312 L220 290 Q220 288 219 287 Q217 283 217 281 L214 274 Q213 272 212 270 Q211 270 211 271 Q207 267 207 256 Q207 253 204 250 Q203 249 203 247 Q200 242 200 234 L198 227 Q194 217 190 212 L187 207 Q185 198 183 196 Q183 194 182 193 Q182 187 180.5 184.5 Q179 182 177 180 Q171 174 166.5 164.5 Q162 155 163 150 Q163 142 154 135 L152 133 Q151 132 151 129 L150 117 Q150 112 144 103 L141 100 Q140 99 140 97 Q140 90 134 83 Q133 82 132 78 Q128 68 128 63 L119 46 Q117 42 115 39 Q110 27 99 26 Z" /><glyph glyph-name="question" unicode="?" d="M117 234 L115 236 Q115 237 114 238 Q112 241 115 244 L120 259 Q127 277 138 313 Q140 324 149 340 Q153 347 157 355 L181 395 Q189 405 193 414 L201 424 L203 428 Q210 437 213 446 L217 453 L223 463 Q233 480 239 503 Q243 513 236.5 525.5 Q230 538 219 541 Q193 552 165 537 Q161 534 151 529 Q138 523 138 522 L132 516 Q114 504 108 479 Q108 477 106 473 L103 467 L83 437 Q66 443 56 462 L52 474 L49 486 Q47 496 37 506 Q29 511 29 524 L29 528 Q29 534 34 537 Q49 554 76 569 Q101 585 130 590 Q144 593 158 593 Q175 593 194 587 Q213 586 237 569 Q256 557 266 534 Q278 515 276 481 L276 477 Q276 463 264 439 L232 385 Q228 377 218 363 Q214 359 205 343 Q202 342 201 342 Q198 331 190 321 Q186 314 181 307 Q181 305 180 304 Q174 294 167.5 284.5 Q161 275 148 262 Q146 256 143 251 Q137 242 129 240 Q125 237 120 235 Q119 234 117 234 ZM122 63 Q112 68 100 76 Q90 81 87 89 Q73 112 70 129 Q69 137 69 156 Q70 158 71 160.5 Q72 163 73 165 Q78 172 82 175 Q86 175 89 176 Q96 176 99 178 Q118 185 128 167 L129 165 Q130 164 131 164 L135 164 Q143 164 149.5 157 Q156 150 157 142 Q159 137 159 127 Q160 123 160 120 Q160 115 158 109 Q157 106 157 100 Q157 84 150 72 Q138 55 122 63 Z" /><glyph glyph-name="A" unicode="a" d="M54 45 Q53 46 51 48 L47 52 Q40 54 35 57 L27 61 Q27 62 26 64 Q24 64 22 67 Q15 73 18 81 Q25 102 32 110 Q33 111 33 113 L35 118 Q38 122 38 127 Q41 133 43 140 Q43 145 48 151 Q55 162 58 170 L61 172 Q61 173 63 176 L72 195 Q72 199 75 202 L84 217 L100 241 Q104 246 104 256 L113 272 L118 280 L120 284 Q121 287 122 290 L126 300 L128 304 Q132 308 137 319 Q138 321 139 323 L141 327 Q145 333 145 337 Q150 346 156 354 Q158 358 160 362.5 Q162 367 169 378 Q173 383 173 391 Q173 399 181 399 Q187 402 187 403 Q186 413 191 422 L194 428 Q199 432 203 436 Q205 439 207 443 Q210 444 212 445 Q218 445 219 448 Q220 451 219 455 Q219 456 217 460 Q217 462 216 464 Q216 471 222 477 Q226 479 221 490 L225 499 Q230 502 231 511 L234 517 Q237 521 237 528 Q241 533 244 541 Q252 553 253 554 Q256 557 263 571 Q264 573 264 576 Q271 579 274 585 L281 585 Q291 585 298 582 Q303 582 307.5 585.5 Q312 589 321.5 584.5 Q331 580 341 584 Q343 585 351 585 L357 585 Q363 585 365 584 Q373 582 377 582 Q383 582 388 575 Q389 570 396 563 Q397 560 396 553 Q394 550 396 548 L396 540 Q398 535 399 531 Q399 520 400 517 Q403 511 403 500 Q403 498 402.5 496 Q402 494 401 492 L402 491 Q403 487 403 469 L403 461 Q403 457 402 455 Q400 450 400 444 Q400 441 398.5 438 Q397 435 398 434 Q399 431 399 427.5 Q399 424 397 422 Q397 421 396 420 L396 412 Q396 408 395 404 Q394 402 394 398 Q394 396 393 394 Q389 385 391 381 Q393 377 391 365 Q388 361 389 360 Q389 355 387 349 Q385 343 385 341.5 Q385 340 382 337.5 Q379 335 379 328 Q381 320 376 313 Q374 309 374 303 L374 270 Q374 254 371 239 Q370 238 370 235 L370 185 Q370 181 371 179 Q374 174 374 163 L374 111 Q377 107 377 98 L377 91 Q374 85 372 75 L370 67 Q370 61 361 61 Q357 64 347 54 Q341 50 334 59 Q332 61 329 61 Q316 66 310 78 Q308 85 304 89 L301 92 L279 112 L273 118 Q269 118 266 124 Q260 132 254 141 Q251 141 251 147 L251 158 Q251 167 259 165 Q262 165 271 162 Q272 161 284 155 Q290 153 296 148 Q303 146 308 147 Q309 148 309 150 Q314 157 314 163 Q313 167 316 173 Q317 175 317 182 Q317 193 318.5 195 Q320 197 320 202 L320 268 Q320 272 316 271 Q308 266 303 266 Q291 266 273 263 Q266 265 251 265 L244 265 Q232 265 225 268 Q223 269 219 269 L215 269 Q203 269 197 270 Q196 269 193.5 268.5 Q191 268 191 267 Q189 265 187 265 Q177 265 171 257 L169 254 Q165 249 160 246 L155 241 Q146 232 145 224 Q141 220 136 207 L134 202 Q127 195 125 182 L116 163 Q114 161 114 160 Q109 152 111 147 Q111 141 109 139 Q109 137 108 136 Q104 131 99 118 Q98 114 97 111 L93 103 Q88 96 88 88 Q82 80 82 72 Q80 70 75 60 Q70 50 68 47 Q64 40 60.5 39 Q57 38 54 45 ZM311 313 L312 312 Q315 309 321 316 Q323 317 322 321 L322 330 Q322 353 320 363 L320 367 Q317 373 317 381 L317 420 Q313 430 314 444 Q314 446 313 448 L313 471 Q314 472 311 474 L309 472 Q304 465 299 458 Q289 444 285 436 Q279 427 273.5 423.5 Q268 420 262 406 Q260 402 260 401 Q258 399 258 397 Q254 391 250 386 L243 377 L239 372 Q235 368 228 356 Q220 342 211 333 Q211 331 210 329 L206 323 Q207 319 212 319 L217 319 Q229 319 238 317 Q244 319 259 319 L263 319 Q280 316 298 316 Q301 314 307 314 Q309 313 311 313 Z" /><glyph glyph-name="M" unicode="m" d="M81 70 L78 70 Q67 72 63 76 Q58 76 57 77 Q51 88 47 92 Q35 104 31 115 Q33 115 33.5 115.5 Q34 116 34 117 L41 126 L50 139 Q55 148 59 157 Q74 183 74 201 Q75 202 76.5 203.5 Q78 205 82 210 L81 209 Q85 215 85 217 Q85 222 88 226 Q93 235 92 239 L93 238 Q90 242 93 244 L103 275 Q103 276 107 280 L110 282 L108 281 L116 295 Q122 301 122 303 Q123 316 129 336 Q133 339 133 340 Q131 347 140 356 Q142 358 142 365 Q139 372 143 379 Q143 380 145 382 Q145 385 156 396 Q158 398 159 406 L167 428 L170 433 Q171 435 172 438 Q170 445 167 448 L172 452 L176 455 Q177 456 177.5 457 Q178 458 178 461 Q176 468 181 474 Q182 476 183 478 L188 483 Q191 485 195 491 Q197 493 197 495.5 Q197 498 200 502 Q208 521 211 526 Q210 527 209 529 Q207 535 211 540 L222 562 Q215 578 226 592 L248 588 Q257 585 265 582 Q270 581 274 580 Q284 572 285 561 L286 553 Q293 542 295 542 Q305 536 311 528 L315 523 L315 517 Q315 501 312 492 L312 459 Q319 454 310 443 Q306 430 309 424 Q310 422 310 421 Q313 416 310 412 Q308 404 309 400 Q310 398 310 396 Q312 393 312 385 L312 252 Q312 243 314 237 Q315 234 315 216 L315 208 Q315 206 318 203 Q335 211 350 233 L355 240 Q369 258 389 291 L398 304 L407 321 L418 342 Q420 355 426 373 Q432 391 433 400 Q435 406 437 414 Q439 426 441 430 L441 444 Q443 462 438 472 L438 491 L450 503 Q469 521 487 540 L487 565 Q487 573 488 576 Q494 580 494 593 Q496 595 505 595 Q511 598 515 598 Q524 602 532 598 Q546 597 557 592 L563 590 Q565 588 567 588 Q581 585 583 571 Q583 567 589 561 Q596 549 602 515 L604 505 Q604 500 607 496 Q610 489 610 475 Q609 470 609 457.5 Q609 445 607 439 Q609 431 609 416 Q609 401 610 391 Q610 373 604 365 Q602 361 601.5 357.5 Q601 354 603 350 Q605 343 603.5 339.5 Q602 336 602 329 L602 324 Q602 322 604 321 Q606 315 603.5 309.5 Q601 304 599 296 Q594 288 594 281 Q592 255 585 243 Q579 225 579.5 210.5 Q580 196 573 188 Q572 187 572 182 Q572 167 565 146 Q564 143 563 141 L560 132 Q559 125 555 116 Q552 110 552 94 Q556 86 552 78 Q552 74 549 71 Q542 65 536 74 L528 103 Q528 108 529 110 Q532 114 539 120 L542 123 Q540 133 545 148 Q548 163 551 179 L554 198 Q553 204 553 238 L553 266 Q553 278 550 285 Q547 290 549 299 Q550 301 550 303 Q550 308 550 314 Q551 316 551 323 Q550 326 550 336 L550 360 Q549 362 547.5 365 Q546 368 546 379 Q546 386 545 390 L545 396 Q545 410 542 417 L542 427 Q542 438 539 445 Q538 448 538 456 Q538 461 536 464 L532 480 L529 496 Q529 498 528 498 L525 496 Q524 496 524 494 Q518 478 519 472 L519 468 Q519 456 523 451 L513 432 Q509 416 505 401 Q504 400 504 393 L484 351 L475 330 Q475 329 474 328 Q473 327 473 324 Q466 315 459 302 Q459 300 458 299 Q453 289 446 282 Q441 273 436 265 Q435 263 434 261 L430 255 Q417 232 403 209 Q399 203 383 187 L378 181 Q373 173 363 168 L362 167 Q354 151 348 146 Q339 137 322 135 Q311 137 290 152 L284 157 Q278 164 271 172 Q267 177 264 183 Q252 196 247 219 L244 232 Q246 236 239 248 Q239 252 238 256 Q236 262 236 269 L236 274 Q236 286 234 290 Q230 294 232 300 Q233 301 233 303 Q232 308 232 320 Q232 337 230 343 Q233 349 231 359 Q230 361 230 367 Q228 373 228 388 L228 401 Q228 403 227 403 Q226 403 224 403 L199 351 Q199 349 188 325 L185 318 L174 305 Q174 283 160 271 Q156 243 143 212 L137 196 Q135 190 132 184 L124 160 Q122 156 122 154 Q120 147 116 142 Q114 138 114 131.5 Q114 125 113.5 122.5 Q113 120 112 119 Q112 114 110 111 Q102 101 96 78 Q93 70 81 70 Z" /><glyph glyph-name="bracketleft" unicode="[" d="M104 -60 Q101 -59 94 -59 Q75 -59 64 -51 Q62 -50 59 -49 Q53 -46 50 -39 Q47 -36 47 41 L47 96 Q47 122 46 124 Q44 130 46 137 Q50 157 50 165 Q48 190 46 215 L46 220 Q46 223 45 227 L45 362 Q51 373 51 399 L51 407 Q52 454 52 547 Q52 557 56 569 Q58 574 58 582 L58 586 Q58 607 65 616 Q67 620 66 623 L66 632 Q66 635 67.5 636.5 Q69 638 69 640 Q82 647 104 647 L121 647 Q130 647 138 648 Q144 650 148 650 Q150 650 151 651 Q163 655 173 655 Q202 658 230 655 Q241 655 254 648 Q268 647 268 629 L268 622 Q271 612 265 607 Q262 604 259 601 L246 601 Q226 601 218 600 Q202 597 184 597 Q176 596 167 596 Q162 595 149 595 L132 595 Q122 595 117 594 L111 593 L108 587 Q101 578 105 570 Q107 568 107 565 L107 514 Q107 488 103 479 Q100 476 101 472 Q102 468 102 464 Q102 440 101 416 Q100 400 100 370 Q100 361 96 351 Q91 335 96 265 Q100 257 100 243 Q101 234 101 210 Q101 172 107 164 Q107 149 103 138 Q105 132 103 123.5 Q101 115 102 111 L102 94 Q102 7 106 -2 Q110 -9 115 -9 L138 -9 Q150 -10 163 -3 Q166 -2 175 -5 Q181 -5 205 -7 Q220 -8 237 -8 Q238 -9 244 -7 L250 -11 Q259 -20 262 -30 Q262 -34 261 -38 Q261 -53 247 -56 L243 -56 Q211 -57 179 -57 L179 -53 Q142 -57 104 -60 Z" /><glyph glyph-name="bracketright" unicode="]" d="M29 -47 Q16 -27 28 -10 Q30 -9 37 -4 Q40 -4 44 -2 Q50 0 58 0 Q71 -1 84 -1 Q117 -3 135 0 Q151 0 162 6 Q171 10 187 2 Q188 5 188 9 Q191 39 191 99 Q191 107 196 119 Q198 123 198 131 Q199 159 199 210 Q199 221 198 224 Q191 240 191 270 Q191 400 188 468 Q189 472 189 476 Q191 482 188 486 Q182 503 182 536 Q182 555 181 565 L180 573 Q168 588 165.5 588 Q163 588 161.5 588.5 Q160 589 158 590 Q140 590 125 591 Q119 595 105 599 Q91 603 85.5 606.5 Q80 610 73 614 L64 621 L65 620 Q56 625 63 635 Q65 643 71 645 L84 648 Q96 650 100 652 Q106 656 111 653 Q123 648 139 648 L221 648 Q233 648 235 647 Q253 627 275 620 Q286 612 286 603 Q288 594 291 587 L284 576 Q272 558 274 546 Q268 525 265 503 L261 488 Q256 473 257 461 L257 420 Q257 402 251 390 Q249 387 247 381 L243 373 L243 364 Q244 358 246 352 Q246 347 248 345 Q249 340 247 334 Q243 328 245.5 321.5 Q248 315 248 302 L248 270 Q248 256 244 241 Q239 223 239 210 Q239 192 240 184 Q241 171 241 159 Q241 154 244 148 Q252 130 245 98 Q240 80 240 62 Q240 44 246 29 Q248 23 248 15 Q248 -1 244 -23 Q239 -48 234 -48 Q231 -49 227 -49 Q220 -51 214 -48 Q210 -45 200 -47 Q195 -48 189 -48 Q178 -48 174 -47 Q159 -45 153 -48 Q149 -51 141 -49 Q138 -49 135 -48 Q130 -48 124.5 -46.5 Q119 -45 113 -48 Q99 -53 76 -49 Q71 -48 61 -48 L49 -48 Q45 -46 40 -48 Q31 -50 29 -47 Z" /><glyph glyph-name="a" unicode="a" d="M100 60 L97 60 L84 62 Q73 65 61 68 L40 79 L34 83 L25 92 Q28 99 21 117 Q20 119 20 127 Q19 130 19 137 L19 147 Q19 154 22.5 163 Q26 172 26 179 Q26 181 27 182.5 Q28 184 28 186 L35 202 Q43 227 51 240 Q52 243 52.5 247 Q53 251 56 256 L66 271 L69 278 L74 293 Q74 299 78.5 303.5 Q83 308 85 316 Q86 319 87 323 Q88 329 96 337 Q102 340 103 341 Q106 344 106 348 Q110 361 125 373 L139 383 L147 383 Q154 383 159 385 Q161 387 164 387 Q173 386 183 390 Q200 396 211 393 Q215 393 220 398 L236 400 Q239 400 246 402 Q263 407 268 393 Q268 389 269 389 L274 383 Q279 374 289 371 Q294 368 297 361 L301 355 Q301 349 299 348 Q292 338 279 333 L256 320 L246 327 Q241 330 239 338 Q237 343 231 347 Q227 347 227 348 Q220 350 216 347 Q196 347 179 330 L172 323 Q163 314 161 308 L157 302 L136 264 Q130 250 119 239 Q117 237 117 235 Q117 231 114 222 Q110 218 110 214 L108 207 Q102 194 100 184 Q100 180 98 174 Q98 172 97.5 170 Q97 168 95.5 166 Q94 164 94 161 Q94 149 89 143 Q88 137 89.5 134 Q91 131 91 125 L91 121 Q91 117 95 109 Q100 109 104 109 Q126 121 141 131 L169 158 Q174 161 184 176 L192 185 Q195 188 195 192 L198 199 Q205 219 204 225 L204 229 Q205 231 205 234 Q211 250 210 258 Q210 263 212 267 Q217 277 217 288 L217 297 L221 301 Q222 302 228 309 Q236 309 265 314 Q267 315 277 315 Q285 315 289 317 Q297 319 307 315 Q319 310 314 300 L305 278 Q298 266 298 255 Q298 252 297 250 Q292 241 288 225 L286 212 L275 174 Q265 144 266 126 Q267 125 268 125 Q269 125 270 126 Q293 138 319 159 Q329 166 340 177 Q348 182 347 193 Q347 196 349 198 Q353 201 356 201 Q367 200 373 192 Q374 190 379 179 Q374 162 361 152 L348 138 Q342 131 328 121 Q324 119 323 117 L320 111 Q319 106 315 102 Q298 81 280 72 Q267 67 261.5 67.5 Q256 68 254.5 66.5 Q253 65 247 67 Q242 68 236 69 Q233 70 229 72 Q208 79 193 95 Q189 99 185 103 Q181 107 173 99 L164 91 L160 87 L154 82 L138 72 Q136 71 133 71 Q125 71 123 69 Q116 62 107 62 L100 60 Z" /><glyph glyph-name="u" unicode="u" d="M89 61 L78 61 L69 64 Q62 65 56 70 Q55 71 50 73 Q45 75 44 80 Q36 88 35 97 Q25 108 29 120 Q31 122 31 126.5 Q31 131 32 133 Q34 137 34 138 L34 142 Q36 184 44 211 Q44 218 45 219 Q45 222 47 224 Q47 240 48 242 Q50 249 51 257 Q52 259 52 262 Q52 273 56 278 Q60 285 60 291 Q60 293 60 295 Q55 305 60 316 Q60 326 66 340 L66 343 Q66 346 69 350 Q73 355 75 367 Q79 377 84.5 387 Q90 397 98 398 Q104 402 110 398 Q118 393 126 396 L141 395 Q152 391 154 383 Q154 378 153 376 Q151 372 149 372 Q143 366 138 356 Q132 343 120 306 Q117 296 114 287 Q107 259 103 239 L100 223 L94 190 Q94 173 91 168 Q86 163 86 159 Q88 148 80 142 Q84 132 81.5 126 Q79 120 79 118 Q79 116 78 115 Q77 111 77 102 L77 98 Q78 96 78 94 Q79 88 82 86 Q85 84 90 87 L93 87 Q96 90 97 90 L96 89 Q99 90 102 92 L104 92 Q107 95 108 95 L110 97 Q115 102 117.5 102 Q120 102 121 106 Q129 108 130 110 Q136 116 138 117 L137 116 Q140 118 142 120 L162 139 L165 142 Q172 149 175 156 L179 161 Q187 169 199 189 Q204 201 204 210 Q204 212 206 214 Q207 218 208 223 Q210 239 214 248 Q220 260 220 264 L225 283 Q229 296 233 309 Q241 334 244.5 339.5 Q248 345 249 352 Q250 357 251 365 Q257 371 257 374 Q258 375 258 377 Q260 385 266.5 385 Q273 385 281 393 L287 393 Q290 393 292.5 394 Q295 395 297 396 Q303 393 308 395 Q312 395 316 396 Q324 393 326 387 Q332 374 324 363 Q322 361 322 359 Q318 349 313 340 Q311 334 311 332 Q312 324 305 310 L302 302 Q299 297 292 276 Q290 269 286 262 Q279 244 274 220 L272 212 Q270 207 266 196 L263 190 Q258 182 258 180 Q259 170 253 152 Q249 146 252.5 142.5 Q256 139 254 128 Q249 113 260 101 Q264 97 273 101 L288 111 Q293 115 295 123 Q295 125 299 133 L308 126 Q308 122 313 120 Q324 116 320 106 Q318 104 318 103 Q305 86 295 82 L287 78 Q285 78 284 77 Q281 74 278.5 74 Q276 74 273 73 Q264 72 256 74 Q251 69 243 77 Q237 78 234 81 Q221 82 208 98 Q211 101 209 106 L209 108 Q208 110 206 113 L202 118 Q202 120 200 122 L198 127 Q196 131 191 129 Q187 125 186 125 Q185 125 181 124 Q180 123 180 120 Q180 117 178 114 Q175 109 172 107 Q169 105 169 104 Q166 97 151 87 L147 85 L142 81 Q141 79 140 78 L137 76 L128 70 L122 67 Q118 65 115.5 64.5 Q113 64 111 63.5 Q109 63 106 62 Q96 60 89 61 Z" /><glyph glyph-name="bar" unicode="|" d="M138 -115 Q136 -113 133 -111 Q128 -104 121 -100 Q121 -97 120 -97 Q116 -86 113 -83 Q109 -77 105 -71 Q103 -61 101 -54 Q94 -45 98 -35 Q100 -31 100 -19 Q100 -5 103 2 L103 5 Q102 11 104 25 Q105 27 105 29 Q105 40 104 42 Q101 47 102.5 54 Q104 61 104 75 L104 79 Q104 86 105 87 L105 94 Q105 108 104 117 Q104 119 103 122 Q104 126 104 130 Q107 139 105 142 Q103 158 107 167 L107 193 Q103 198 105.5 209.5 Q108 221 105 237 Q103 250 107 259 Q108 260 108 262 Q110 268 106.5 272.5 Q103 277 110 287 Q111 290 111 296 Q106 312 109 329 Q110 331 109.5 334 Q109 337 109 354 L109 364 Q109 369 107 373 Q104 380 107 386 Q107 390 109 396 L109 400 Q109 402 109 404 Q107 406 107 408 Q108 415 107 425 Q105 439 107 447 Q111 459 107 472 L107 491 Q107 501 105 506 Q103 518 104 522 Q107 525 107 535 L107 589 Q104 596 104 605 L104 613 Q104 627 103 630 L103 635 Q104 638 104 642 Q105 650 103 661 Q100 665 100 669 L98 677 L98 683 Q100 687 99.5 689 Q99 691 96 694 Q88 700 93 712 Q104 731 113 731 Q118 731 118 735 Q120 742 129 744 L134 746 Q144 746 150 736 L151 735 Q153 733 156 733 Q174 728 165 703 Q161 692 163 688 L163 642 Q163 638 162 634 Q160 623 163 618 Q164 608 162 589 Q161 582 161 570 L161 564 Q159 559 159 547 L159 535 Q159 525 157 515 Q151 502 156 490 Q157 488 154 479 L154 444 Q152 435 152 421 L152 417 Q154 415 154 407 Q150 400 150 387 L150 330 Q150 322 147 317 Q146 314 147 308 Q148 304 148 300 Q150 292 147 289 L147 286 Q147 271 143 256 Q141 253 141 243 L141 223 Q141 211 139 203 L139 195 Q140 187 140 171 L140 143 Q139 140 139 130 Q137 126 139 123 L139 56 Q139 25 140 8 Q141 0 141 -19 Q142 -23 142.5 -25.5 Q143 -28 143 -35 Q147 -45 147 -53 L147 -72 Q149 -78 149 -83 Q147 -89 147 -102 L147 -110 Q147 -115 144 -117 Q141 -119 138 -115 Z" /><glyph glyph-name="asciitilde" unicode="~" d="M281 298 Q278 300 273 300 Q271 300 267.5 300.5 Q264 301 258 303 Q256 303 254 304 Q240 305 218 315 L175 335 Q162 340 152 340 Q147 340 141 337 Q125 330 112 330 Q108 329 104 329 Q96 327 88 327 Q77 327 60 322 Q53 319 39 321 Q32 321 33 328 L39 335 Q62 359 83 370 L90 373 L98 377 Q103 380 108 380 L113 380 Q117 382 129 385 L138 388 Q154 392 169 388 Q172 387 175 386 L180 386 Q185 383 195 379 Q215 370 223 363 Q228 359 249 347 L260 340 Q262 338 263 338 L267 338 Q300 336 316 348 L338 361 L349 371 L355 376 Q360 381 372 387 Q372 382 374 380 L376 377 Q376 366 373 361 L369 353 L366 346 Q365 343 356 334 L349 328 L344 324 Q330 310 305 302 L294 298 Q288 296 281 298 Z" /><glyph glyph-name="quotedblleft" unicode="&#x201c;" d="M806 489 L801 491 Q791 493 781 504 Q778 509 767 510 Q762 512 759 518 Q752 532 749.5 540.5 Q747 549 752 559 L761 575 Q763 579 765 583.5 Q767 588 769 591 L774 600 Q777 606 782 609 Q796 621 803 637 L808 643 L814 651 Q818 660 827 666 Q831 670 831 677 Q830 686 840 689 Q842 689 844.5 691.5 Q847 694 849 694 Q857 694 863 688 Q865 686 865 683 Q865 680 862 676 Q857 670 861 666 Q866 657 853 644 Q850 642 842 626 Q840 620 837 615 L833 609 Q827 600 826 592 Q819 585 821 570 Q821 564 826 563 Q828 562 836 557 Q838 555 840 555 Q842 552 843 552 L852 545 L852 541 Q852 538 851 538 Q860 529 855 517 Q850 505 842 502 Q841 501 840 501 Q836 493 827.5 493 Q819 493 814 491 Q812 489 806 489 ZM675 485 Q660 488 653 497 L642 509 Q641 510 639 510 Q632 510 630 516 Q626 523 626 530 Q626 540 629 546 L632 553 L636 560 Q638 568 641 572 L651 586 Q659 598 665 604 L674 615 Q683 627 690 641 Q693 644 695 648 L702 656 L708 662 Q719 669 725 675 Q728 678 732 682 Q741 690 742 691 Q743 692 748 692 Q750 687 747 678 Q742 668 741 661 Q741 659 740 657 L732 642 L729 631 Q727 628 717.5 618.5 Q708 609 704 594 Q704 592 703 591 Q703 587 701 584 Q698 578 698 574.5 Q698 571 696 567 Q696 563 700 562 Q708 558 714 552 Q716 550 719 544 L721 538 Q725 530 721 524 Q718 521 718 519 Q718 510 704 496 L692 487 Q689 486 686.5 485.5 Q684 485 675 485 Z" /><glyph glyph-name="quotedblright" unicode="&#x201d;" d="M267 526 Q264 527 263 529 Q262 531 264 534 Q268 540 269 543 L272 548 Q272 549 274 551 Q276 553 276 554 Q279 556 279.5 560.5 Q280 565 284 570 Q289 578 289 584 Q289 587 290 589 Q292 593 292 597.5 Q292 602 294 606 Q298 613 301 625 Q304 631 299 643 L291 643 Q284 643 279 652 Q274 663 287.5 670.5 Q301 678 311 674 L315 674 Q324 677 340 670 Q345 667 353 665 Q372 661 377 643 Q380 634 380 626 Q380 624 379.5 622.5 Q379 621 378 619 L375 613 Q371 607 370 600 L350 569 Q345 563 335 557 Q327 553 326 550 L320 543 L317 540 Q312 532 295 532 L289 532 L290 533 L286 530 Q280 524 267 526 ZM130 514 Q123 514 122.5 518.5 Q122 523 124 525 L130 529 Q135 530 135 533 Q139 536 141 544 Q142 548 143 552 Q149 562 149 568 Q149 570 150.5 571.5 Q152 573 152 575 Q154 577 158 591 L161 598 Q162 600 163 603 L167 616 Q169 618 169 621 L171 643 Q171 649 165 649 L155 649 Q146 649 146 655 Q143 662 155 666 Q162 669 172 671 Q174 672 181 672 L197 672 Q208 672 217 667 Q219 666 221.5 666 Q224 666 231 661 Q232 660 233 660 Q248 645 249 635 L251 633 Q253 629 252 625 L249 620 Q246 614 243 612 Q235 609 230 598 Q228 596 228 594 Q226 589 221 587 Q220 583 218 579 Q215 578 214 575 L200 560 Q191 548 172 540 Q166 534 161 533 Q158 532 149 526 L145 521 Q139 515 135 515 Q133 514 130 514 Z" /><glyph glyph-name="ellipsis" unicode="&#x2026;&#x22ef;" d="M155 402 Q158 401 160 400.5 Q162 400 164 400 Q168 398 170 398 Q176 398 182 396 Q183 395 188 395 L197 391 Q208 386 215 385 L221 383 Q227 378 232 372 L237 367 Q240 364 239 358 Q238 357 237 353 Q233 343 226 339 Q222 335 224 327 Q225 311 209 307 L203 307 Q196 310 191 301 Q189 296 179 297 Q177 298 174 299 Q163 301 158 305 L156 306 Q146 310 141.5 314.5 Q137 319 129 323 Q117 325 115 337 Q114 338 115 347 Q119 350 114 355 Q109 367 114 383 L117 392 Q120 398 130 398 Q139 395 149 401 Q152 401 155 402 ZM533 305 Q527 296 517 297 Q511 293 501 303 Q491 313 477 313 Q470 312 463 318 L447 332 Q438 343 443 353 Q444 355 444 357 Q443 362 442.5 367 Q442 372 441 373 Q439 382 447 387 Q450 387 456 389 Q459 389 461.5 390 Q464 391 466 392 Q480 394 489 398 Q495 398 501 395 Q509 392 516 390 Q527 385 537 381 Q539 380 541 380 Q552 382 562 372 Q565 363 561 356 Q560 352 553 344 Q551 339 553 336 Q557 325 547 317 L536 309 Q535 308 533 305 ZM820 395 L827 395 Q831 395 839 393 Q844 387 851 387 Q855 387 861 382 Q867 377 880 373 Q882 373 884 371 Q884 370 887 370 Q904 360 896 350 Q883 337 878 328 Q877 326 871 319 L862 308 L854 301 Q845 297 836 303 Q832 306 804 323 L797 327 Q793 328 791 332 Q786 337 780 343 L776 352 Q777 354 777 367 L777 374 Q777 386 789 389 Q794 392 807 394 Q811 395 820 395 Z" /><glyph glyph-name="uni3001" unicode="&#x3001;" d="M186 112 Q227 99 277 67 Q294 58 311 39 Q326 22 315 6 L309 -4 Q305 -14 295 -24 Q283 -36 269 -35 Q266 -35 258 -39 L252 -42 Q246 -46 238 -41 Q230 -36 229 -29.5 Q228 -23 228 -10 Q228 11 212 31 Q198 45 190 58 L177 79 Q172 84 170 96 Q170 98 168 104 Q167 106 172.5 110 Q178 114 179 113 L178 114 Q180 113 181.5 112.5 Q183 112 186 112 Z" /><glyph glyph-name="uni3002" unicode="&#x3002;" d="M172 44 Q170 72 190 106 L195 115 Q199 120 202 126 Q205 130 210 133 L224 140 Q226 140 227 141 Q246 152 262 143 Q262 141 267 141 Q290 144 314 128 Q315 127 316.5 127 Q318 127 321 124 L334 112 L347 92 Q351 86 349 82 Q343 76 343 66 Q343 60 342 54 L342 43 Q343 32 337 20 Q333 12 333 7 L325 -3 Q307 -25 287 -32 Q283 -36 282 -36 Q279 -38 275 -39 Q250 -52 225 -40 Q224 -40 222 -38 Q197 -34 184 -3 Q182 2 179 11 L176 20 Q175 29 173 38 Q173 41 172 44 ZM219 19 L245 19 Q272 19 291 44 Q297 52 291 60 Q282 75 261 85 Q247 93 237 91 Q225 89 222 78 L208 36 Q205 22 219 19 Z" /><glyph glyph-name="uni4E00" unicode="&#x4e00;" d="M400 366 Q574 393 758 424 L805 424 Q859 418 906 399 Q908 389 908 379 Q891 368 871 358 Q732 358 664 354 Q584 338 428 315 Q373 297 270 276 Q232 276 193 278 Q111 305 98 311 Q90 325 109 330 Q232 336 330 342 Q371 350 400 366 Z" /><glyph glyph-name="uni4E07" unicode="&#x4e07;" d="M584 700 Q707 721 850 731 Q885 713 914 694 Q932 678 932 651 Q918 639 902 633 Q850 647 822 659 Q680 653 582 655 Q555 643 543 625 Q564 594 576 561 Q555 514 549 473 Q613 444 682 381 Q682 354 680 329 Q639 221 572 88 Q527 36 494 -21 Q471 -29 459 -29 Q438 10 402 55 Q385 104 387 155 Q387 170 402 166 Q424 100 473 59 Q533 137 576 235 Q594 291 615 348 Q572 405 521 434 Q480 387 439 334 Q324 241 238 178 Q223 178 213 184 Q330 311 451 440 Q480 506 510 553 Q510 571 506 590 Q488 614 467 620 Q320 575 215 528 Q150 557 82 557 Q68 565 70 577 Q330 623 584 700 Z" /><glyph glyph-name="uni4E09" unicode="&#x4e09;" d="M559 188 Q637 192 676 196 L814 196 Q852 186 869 180 Q902 157 936 125 L936 108 Q928 100 924 94 Q895 94 883 92 Q848 98 826 112 Q754 120 729 121 L551 121 Q498 112 449 110 Q385 92 326 75 Q254 55 188 22 Q158 22 104 26 Q76 39 64 51 L64 79 Q64 86 76 90 Q111 96 156 86 Q180 94 209 110 Q230 116 258 116 Q352 145 479 170 Q508 170 537 172 Q547 182 559 188 ZM512 391 Q521 403 535 403 Q551 407 563 397 L574 385 Q572 366 563 342 Q551 336 545 330 Q461 315 398 293 Q377 297 338 297 Q322 305 316 307 Q295 319 293 334 L293 348 Q293 358 301 358 Q324 360 373 360 Q467 383 512 391 ZM443 631 Q512 655 584 678 L615 678 L627 670 L627 649 Q594 623 574 600 Q504 571 449 555 Q379 567 297 563 Q277 569 268 577 Q242 596 242 625 Q262 621 279 608 Q355 625 443 631 Z" /><glyph glyph-name="uni4E0A" unicode="&#x4e0a;" d="M352 711 Q348 729 359 731 L393 731 Q416 725 439 705 Q451 696 471 666 Q471 653 465 635 Q467 592 467 551 Q463 524 459 514 Q453 481 463 454 Q467 450 471 446 Q510 459 557 485 L592 485 Q611 477 641 461 Q650 457 650 442 Q641 428 631 416 Q572 412 545 409 Q512 401 471 381 Q463 379 459 366 Q453 342 453 321 Q453 280 463 227 Q451 168 449 161 Q461 129 465 112 Q469 110 477 102 Q578 110 631 114 Q719 110 814 114 Q855 108 895 82 Q906 71 945 36 Q945 16 939 -2 L920 -2 Q861 14 814 36 Q766 39 672 47 Q527 47 465 43 Q371 22 277 8 Q229 -4 186 -31 Q139 -29 92 -25 Q78 -13 55 -2 Q53 12 61 22 Q76 37 107 41 Q137 41 207 45 Q246 67 299 77 Q344 82 393 82 Q395 84 406 100 Q396 112 391 131 Q389 157 396 172 Q387 301 398 416 Q396 442 393 457 Q395 522 395 645 Q375 688 352 711 Z" /><glyph glyph-name="uni4E0B" unicode="&#x4e0b;" d="M715 748 Q809 754 893 746 Q912 733 928 715 Q928 686 924 670 Q916 666 910 662 Q850 668 820 678 Q766 678 672 682 Q619 666 553 643 Q553 633 557 602 Q553 598 553 580 Q551 545 547 467 Q559 455 563 454 L600 454 Q672 440 715 426 Q738 420 760 393 Q770 368 770 336 Q762 330 754 327 Q736 329 719 332 Q707 344 688 360 Q656 371 602 403 Q578 403 553 405 Q551 405 547 397 Q545 274 551 112 Q545 47 533 -15 Q527 -37 510 -54 L486 -54 Q479 -46 479 -35 Q482 118 482 418 Q482 459 488 500 Q482 551 486 604 Q475 618 461 625 Q430 621 412 620 Q328 594 242 571 Q217 559 199 545 L170 545 Q131 561 82 571 Q72 577 68 588 L68 606 Q80 621 98 621 Q133 621 152 620 Q234 641 322 641 Q336 651 355 659 L395 659 Q402 670 420 672 Q568 715 715 748 Z" /><glyph glyph-name="uni4E0D" unicode="&#x4e0d;" d="M705 739 Q721 746 748 752 Q807 752 854 745 Q873 729 891 725 Q896 713 914 702 L914 670 Q904 662 895 657 Q852 670 744 696 L670 680 Q637 684 613 680 Q592 680 586 659 Q609 639 633 621 L633 606 Q598 553 586 532 Q582 526 576 522 Q541 465 520 418 Q529 383 535 368 Q529 204 537 -19 Q531 -27 525 -46 Q508 -52 494 -52 Q467 -5 439 24 L439 45 Q443 65 465 65 Q473 94 480 104 Q484 223 492 338 Q482 354 465 354 Q398 303 350 254 Q334 239 318 223 Q178 147 170 143 Q139 143 129 139 Q125 157 137 162 Q209 213 301 264 Q334 293 371 317 Q412 362 451 418 Q432 442 422 452 Q383 471 365 491 Q359 502 359 510 Q359 518 369 518 Q408 506 430 498 Q453 477 488 467 Q490 467 502 475 Q541 557 566 596 L566 610 Q551 629 547 633 Q508 649 500 653 Q479 651 455 651 Q451 649 410 631 Q391 631 383 629 Q322 610 248 569 Q225 565 174 561 Q131 567 104 580 Q90 590 84 600 L84 614 Q148 621 189 623 Q219 637 268 637 Q311 659 348 666 Q451 688 520 698 Q527 702 570 717 Q639 727 705 739 ZM568 383 Q582 391 605 391 Q617 385 645 385 Q715 358 752 342 Q803 317 863 270 Q871 254 879 219 Q873 207 865 198 Q854 198 842 200 Q795 241 756 266 Q672 319 568 373 L568 383 Z" /><glyph glyph-name="uni4E11" unicode="&#x4e11;" d="M533 702 Q566 707 592 721 L633 721 Q689 655 695 647 Q666 530 623 327 Q615 202 607 139 Q617 133 633 127 Q742 133 830 112 Q877 100 924 82 Q938 77 949 61 L949 24 Q924 8 906 8 Q822 36 732 51 Q664 57 600 51 Q576 47 557 36 Q434 30 277 14 Q219 -4 160 -19 Q109 -19 57 -17 Q51 2 63 8 Q150 30 434 94 Q451 94 490 98 Q504 102 535 118 Q547 139 557 161 Q572 258 574 356 Q566 360 559 364 Q480 352 402 346 Q377 340 361 321 Q346 211 342 153 Q336 141 324 129 Q301 129 293 137 Q307 219 318 268 Q313 284 303 284 Q248 284 191 284 L191 299 Q238 329 289 334 Q303 342 326 362 Q326 370 338 375 L338 454 Q309 502 307 506 Q311 543 305 565 Q256 555 221 539 Q191 539 174 545 Q162 561 174 567 Q203 579 238 590 Q340 641 391 668 Q430 680 467 694 Q494 705 533 702 ZM506 647 Q455 639 428 635 Q387 625 363 616 Q348 606 338 592 Q340 561 348 516 Q363 495 379 473 Q379 446 387 420 Q395 416 400 412 Q453 418 514 412 Q533 403 547 397 Q564 397 578 409 Q582 420 592 426 Q588 450 588 495 Q596 537 609 602 Q607 612 605 621 Q592 631 578 639 Q547 647 506 647 Z" /><glyph glyph-name="uni4E16" unicode="&#x4e16;" d="M615 739 Q607 756 619 774 L645 774 L662 756 Q678 733 693 709 Q682 606 676 493 Q676 487 689 483 Q754 487 891 491 Q916 485 941 467 Q945 463 963 452 L963 430 Q957 416 941 411 L893 411 Q869 416 855.5 416 Q842 416 842 412 Q764 426 688 424 L674 411 Q652 321 648 209 Q639 188 633 182 Q592 172 539 168 Q521 162 506 147 L490 147 Q473 162 457 164 Q447 170 447 174 Q445 200 453 217 L453 371 L445 381 L426 381 Q402 379 395 368 L354 368 Q334 362 322 340 Q340 223 350 170 Q350 118 346 24 Q354 16 357 10 Q471 22 578 45 Q689 63 809 69 Q816 69 842 59 Q861 45 873 22 L873 -4 Q867 -17 855 -19 Q826 -19 799 -11 Q695 -11 592 -9 Q473 -33 352 -54 Q340 -60 328 -72 L303 -72 Q283 -60 277 -46 Q279 61 295 166 Q277 198 281 235 Q273 276 260 319 Q252 330 240 330 Q229 325 189 309 Q148 319 90 319 Q61 325 39 340 Q33 354 43 360 Q90 354 141 360 Q174 370 207 379 Q211 385 213 393 L180 475 Q174 495 188 498 Q213 500 246 495 Q270 414 293 403 Q361 411 434 426 L449 440 Q449 454 447 467 Q410 514 393 565 Q387 575 395 582 Q414 582 434 573 Q453 539 500 498 Q500 485 514 454 Q555 459 604 465 Q615 477 621 489 Q625 621 629 692 Q627 698 615 739 ZM602 412 Q578 412 531 405 Q514 393 514 379 Q506 270 506 213 L514 209 Q543 211 572 225 L592 241 Q596 260 604 295 Q607 377 607 409 L602 412 Z" /><glyph glyph-name="uni4E18" unicode="&#x4e18;" d="M244 487 Q307 493 355 434 Q369 411 381 387 Q473 412 553 452 Q605 459 672 475 Q699 477 727 465 Q730 454 730 442 Q715 414 688 409 L631 411 Q617 317 602 182 Q715 200 854 190 Q912 176 961 121 Q961 102 943 90 Q883 96 838 121 Q740 137 650 131 Q479 108 316 61 Q229 18 176 -13 Q102 8 37 47 Q102 75 176 51 Q250 84 332 112 Q340 229 322 381 Q270 440 244 487 ZM543 395 Q465 377 387 348 Q387 217 395 133 Q451 141 541 164 Q564 278 564 377 Q557 395 543 395 ZM510 709 Q525 715 561 702 Q586 670 609 639 Q604 606 582 590 Q463 565 322 512 Q311 518 309 526 Q438 604 525 651 L510 709 Z" /><glyph glyph-name="uni4E1C" unicode="&#x4e1c;" d="M418 793 Q424 805 438 805 Q477 793 506 756 Q520 735 520 709 L500 580 Q617 600 783 612 Q816 606 859 580 Q875 559 869 530 Q857 518 844 518 Q758 547 660 553 Q570 549 494 528 Q438 426 404 305 Q459 301 510 342 Q504 377 480 401 Q477 418 496 422 Q531 426 563 395 Q566 370 580 350 Q625 356 654 334 Q654 305 633 295 Q602 301 578 295 Q563 133 568 -29 Q563 -70 541 -99 Q521 -103 512 -97 Q449 -35 428 24 Q434 47 443 51 Q461 28 490 0 Q531 137 500 274 Q416 245 344 204 Q309 204 281 221 Q275 237 277 246 Q293 274 326 274 Q354 311 367 334 Q404 424 406 506 Q316 477 248 446 Q180 446 125 485 Q113 504 139 516 Q201 512 238 512 Q332 530 426 553 Q451 629 455 713 Q414 748 418 793 ZM611 200 Q676 213 760 202 Q807 182 875 135 Q887 120 871 98 Q854 92 836 86 Q744 143 637 170 Q617 188 611 200 ZM225 176 Q232 188 248 184 Q268 174 293 143 Q303 127 303 92 Q291 32 246 -7 Q229 -5 221 6 Q217 55 238 90 Q221 135 225 176 Z" /><glyph glyph-name="uni4E2A" unicode="&#x4e2a;" d="M367 789 Q408 795 461 791 Q477 791 484 774 L484 762 Q471 750 461 727 Q430 709 412 680 Q408 676 414 670 Q463 657 512 625 Q566 592 607 555 Q637 549 652.5 535.5 Q668 522 697 506 Q729 502 756 487 Q771 481 791 461 Q857 442 922 424 Q932 418 938 409 L938 371 L928 358 Q887 366 813 373 Q762 395 709 418 Q650 461 576 506 L518 557 Q496 573 453 596 Q436 602 424 608 Q408 623 393 633 Q373 637 367 623 Q352 598 320 543 Q234 442 189 391 Q145 352 86 315 Q74 315 63 319 L63 336 Q125 393 213 483 Q264 553 311 608 Q334 655 355 702 Q369 731 389 748 Q381 766 367 772 L367 789 ZM361 479 Q377 487 389 487 Q408 491 426 481 Q439 467 455 444 Q455 430 465 416 Q461 178 455 -58 Q445 -74 434 -89 Q410 -89 402 -86 Q387 -68 381 -48 Q379 -25 379 20 Q383 49 393 67 Q393 143 404 205 Q408 332 402 418 Q381 438 359 459 Q355 469 361 479 Z" /><glyph glyph-name="uni4E3A" unicode="&#x4e3a;" d="M500 797 Q518 807 543 797 Q564 786 568 784 Q596 758 611 737 Q596 635 584 584 Q576 561 568 549 Q563 522 563 495 Q566 491 582 491 Q611 510 652 520 Q734 536 803 555 Q816 557 832 551 Q850 528 869 508 Q850 434 844 373 Q844 344 840 282 Q816 182 799 77 Q781 20 762 -37 Q740 -80 719 -103 L697 -103 Q668 -74 631 -56 Q605 -25 590 -4 Q586 6 592 16 L605 16 Q643 -7 691 -25 Q717 16 742 82 Q754 180 777 260 Q785 393 793 457 Q785 481 768 481 Q727 487 674 483 Q645 479 615 477 Q551 442 547 440 Q527 418 521 393 Q518 377 518 370 Q480 301 428 180 Q396 133 363 86 Q352 86 346 79 Q316 39 291 14 Q279 2 262 2 Q256 12 258 20 Q314 104 354 151 Q400 246 469 373 Q469 379 463 383 Q447 389 436 381 Q297 319 166 241 Q145 241 131 254 Q127 268 133 280 Q238 338 311 370 Q396 409 482 450 Q494 461 500 473 Q520 569 543 645 Q543 702 545 725 L498 780 Q494 791 500 797 ZM377 571 Q420 610 461 633 Q467 637 475 629 Q471 606 453 573 Q398 516 373 491 L361 491 Q334 510 324 530 Q316 565 324 588 Q328 604 346 600 Q355 592 377 571 ZM508 317 Q516 321 523 325 Q553 319 564 317 Q604 299 639 260 Q643 250 646 243 Q643 215 643 196 Q637 184 621 157 L598 157 Q590 194 588 217 Q582 225 559 260 Q529 284 508 291 L508 317 Z" /><glyph glyph-name="uni4E3D" unicode="&#x4e3d;" d="M705 614 Q719 620 742 614 Q762 594 771 577 Q781 577 795 567 Q805 561 805 543 Q789 516 787 489 Q783 360 783 352 Q789 202 795 -11 Q791 -19 791 -37 L771 -56 L746 -56 Q711 -23 670 10 Q660 32 666 45 Q678 59 695 53 Q701 41 721 36 L727 41 Q727 73 732 100 Q723 120 723 129 Q723 209 721 291 Q695 301 674 295 Q625 330 613 340 L602 340 Q586 336 586 327 Q578 266 584 198 Q576 143 576 125 Q572 102 578 80 Q572 65 559 49 Q537 49 531 59 Q520 71 520 79 Q520 170 520 262 Q527 317 535 391 Q531 450 527 483 Q510 504 512 524 Q512 528 521 532 L559 532 Q578 559 600 571 Q656 598 705 614 ZM354 559 Q377 567 408 571 Q416 569 428 561 Q449 545 469 518 Q457 455 449 422 Q453 289 457 20 Q445 -4 438 -15 Q422 -15 406 -13 Q367 34 346 53 Q332 77 338 92 Q346 104 348 106 Q367 106 391 92 Q395 100 398 108 Q387 297 398 479 Q393 502 379 512 Q369 518 363 516 L293 469 Q275 465 258 469 Q244 483 250 493 Q250 502 260 508 Q301 526 354 559 ZM469 725 Q516 735 613 754 Q691 756 789 750 Q848 733 854 731 Q867 717 881 705 L881 692 Q877 682 871 672 Q855 668 844 661 Q773 672 711 690 Q646 696 570 692 Q516 682 410 659 L379 643 Q293 631 227 606 L184 606 Q164 612 133 623 Q121 631 119 637 L119 653 Q127 666 141 666 Q170 666 199 666 Q270 678 410 705 Q432 715 469 725 ZM180 450 Q186 463 207 457 Q219 454 242 438 Q258 428 275 348 Q324 327 342 319 Q350 311 361 291 L369 272 Q352 266 342 266 Q330 266 318 266 Q275 272 275 260 Q262 198 262 92 Q254 63 230 0 Q213 -11 193 -5 Q182 0 182 12 L182 39 Q188 67 199 84 Q205 188 213 401 Q195 412 184 424 Q174 434 180 450 ZM674 553 Q625 536 580 512 Q584 473 584 391 L594 383 L635 383 Q678 371 719 360 Q723 434 723 528 Q711 547 699 553 L674 553 Z" /><glyph glyph-name="uni4E45" unicode="&#x4e45;" d="M500 661 Q508 668 523 662 Q551 641 578 620 Q580 614 588 602 Q586 580 570 561 Q545 557 525 541 Q465 434 424 344 L424 325 Q457 317 486 297 Q543 241 574 211 Q648 166 740 116 Q834 82 947 39 Q955 32 967 8 L967 -15 Q961 -21 953 -25 Q891 -21 844 -11 Q818 -2 764 14 Q697 49 611 100 Q543 161 477 233 Q445 256 418 274 L395 274 Q324 157 287 98 Q256 75 229 39 Q176 4 123 -37 Q102 -39 90 -50 L49 -50 Q41 -46 31 -41 L31 -17 Q55 -17 66 -21 Q104 0 152 34 Q260 147 262 149 Q287 192 330 270 Q352 323 375 371 Q389 407 402 420 Q404 438 412 457 Q443 520 459 553 Q451 561 445 561 Q430 557 426 557 Q410 563 410 569 Q404 582 418 590 Q432 604 465 618 Q482 633 500 661 ZM248 750 Q256 752 273 752 Q322 725 369 705 Q375 694 379 682 L379 633 Q361 608 348 561 Q295 496 252 450 Q188 397 170 383 L148 383 Q141 397 143 403 Q152 416 166 418 Q213 471 268 545 Q297 600 314 653 Q268 694 248 727 L248 750 Z" /><glyph glyph-name="uni4E48" unicode="&#x4e48;" d="M484 508 Q484 524 500 528 Q514 534 529 520 Q549 506 568 469 L568 448 Q547 412 527 370 Q445 262 369 153 Q369 141 379 131 Q463 157 535 184 Q547 188 553 182 L553 170 Q496 139 451 94 Q422 88 389 67 Q336 37 277 -4 Q271 -11 262 -25 Q248 -31 234 -35 Q191 -21 166 -4 Q158 8 154 8 L154 43 Q156 53 170 53 Q203 53 232 61 Q336 196 438 330 Q461 383 494 446 Q484 473 484 508 ZM635 287 Q635 293 646 299 Q676 305 701 284 Q727 256 787 196 Q820 145 846 82 Q846 37 844 -5 Q832 -17 826 -35 L801 -35 Q793 -25 783 -15 Q740 90 695 190 Q666 221 641 250 Q633 264 635 287 ZM359 731 Q367 737 381 733 Q408 719 436 698 Q445 694 455 676 Q465 661 465 639 L445 600 Q396 551 342 483 Q316 479 297 463 Q268 444 246 422 L236 422 Q221 432 227 446 Q273 506 328 557 Q355 610 379 639 Q367 682 359 731 Z" /><glyph glyph-name="uni4E4B" unicode="&#x4e4b;" d="M615 577 Q635 596 650 604 Q664 606 686 594 Q695 586 709 567 L709 543 Q693 528 686 506 Q615 455 563 393 Q498 358 439 305 Q412 299 385 282 Q367 272 355 256 Q307 237 271 211 Q258 205 258 190 Q268 180 281 172 Q404 157 506 129 Q529 121 584 98 Q643 92 703 73 Q740 73 764 71 Q854 90 951 90 Q963 82 975 71 L975 45 Q941 28 908 12 Q871 4 834 -2 Q754 -2 674 -2 Q535 55 512 65 Q453 82 311 116 Q227 123 133 123 Q94 118 70 96 L45 96 Q35 106 25 116 L25 141 Q53 162 92 172 Q133 186 184 190 Q205 204 234 209 Q246 221 258 233 Q326 272 346 282 Q434 346 502 405 Q570 479 609 534 Q605 559 615 577 ZM482 500 Q500 512 521 512 Q525 512 525 500 Q496 489 479 455 Q287 352 205 309 L180 309 Q150 319 131 334 Q119 346 119 365.5 Q119 385 137.5 385 Q156 385 203 381 Q232 387 268 393 L482 500 ZM311 692 Q314 705 334 700 Q361 682 395 670 Q436 678 486 672 Q498 666 504 653 L504 629 Q490 620 479 598 Q453 592 434 577 L414 577 Q400 590 387 604 Q354 623 326 631 Q313 655 311 664 L311 692 Z" /><glyph glyph-name="uni4E50" unicode="&#x4e50;" d="M121 620 Q127 627 145 621 Q166 616 207 598 Q223 579 232 551 Q225 491 207 389 Q215 385 223 381 Q332 411 387 430 Q393 442 404 454 Q395 526 395 549 Q383 573 377 590 Q355 602 342 618 Q340 623 340 625 Q342 629 348 629 L371 629 Q395 625 418 612 Q439 600 455 577 Q455 530 457 467 L465 459 Q508 479 551 489 Q586 498 625 500 Q688 500 740 489 Q750 479 750 465 Q744 457 738 452 Q715 434 693 428 Q619 434 572 430 Q547 422 516 422 Q500 414 465 403 Q459 340 463 297 Q473 209 477 182 Q477 57 475 -68 Q459 -97 453 -103 L422 -103 Q379 -74 359 -48 Q346 -25 344 -15 Q344 6 348 14 Q354 20 365 16 Q391 8 410 -11 Q414 -7 416 -2 Q416 133 418 235 Q410 297 410 371 Q404 383 393 383 Q289 354 227 340 Q186 325 158 295 Q145 295 133 301 Q125 309 123 313 Q121 323 127 336 Q133 346 146 354 Q154 393 178 532 Q174 541 168 553 Q152 571 121 602 L121 620 ZM568 235 Q568 241 578 241 Q635 231 680 225 Q725 205 770 198 Q811 176 855 137 Q867 125 879 108 L879 63 Q871 55 865 51 L846 51 Q799 92 758 127 Q668 180 580 207 Q563 219 568 235 ZM389 762 Q373 786 373 805 Q418 799 451 784 L469 766 L469 752 Q451 741 445 727 Q404 702 354 680 Q309 680 287 676 L275 684 L275 692 Q285 711 307 705 Q322 719 352 752 Q361 762 389 762 ZM143 176 Q143 188 154 188 L172 188 Q199 166 221 123 L221 94 Q201 41 172 8 Q148 2 143 14 L143 41 Q143 69 162 94 Q158 127 143 176 Z" /><glyph glyph-name="uni4E5D" unicode="&#x4e5d;" d="M293 729 Q293 737 301 737 L332 737 Q361 700 389 664 Q385 547 385 473 Q385 469 396 469 Q449 510 508 539 Q531 543 551 553 Q563 577 579.5 582.5 Q596 588 613 577 Q629 555 656 543 Q664 530 658 508 Q627 481 609 467 Q580 426 563 375 Q529 295 518 213 Q516 180 521 131 Q535 106 551 86 Q592 61 654 36 Q713 32 768 30 Q805 37 838 39 Q867 61 910 82 L975 155 L984 155 L984 71 Q975 43 961 28 Q934 16 916 -2 Q871 -13 826 -31 Q762 -37 699 -37 Q648 -25 596 -11 Q557 10 518 32 Q504 51 488 71 Q473 106 467 133 Q461 166 465 192 Q471 250 482 297 Q504 403 543 495 Q539 500 527 508 Q518 508 508 502 Q441 463 389 422 Q373 407 367 399 Q357 338 342 289 Q314 213 273 133 Q252 104 201 45 Q158 34 123 4 Q115 4 107 6 Q102 24 111 30 Q129 45 148 55 Q180 102 229 161 Q246 205 273 252 Q285 291 309 362 L297 370 Q223 327 148 286 Q104 291 18 299 Q16 319 21 327 Q63 338 115 338 Q178 366 236 377 Q313 430 318 434 Q332 510 332 598 Q320 620 324 639 Q311 666 295 696 Q289 711 293 729 Z" /><glyph glyph-name="uni4E5F" unicode="&#x4e5f;" d="M348 704 Q338 725 352 731 L377 731 Q389 723 400 717 Q445 676 480 620 Q473 565 457 448 Q457 440 469 428 Q500 442 543 454 Q602 491 664 522 Q676 524 701 518 Q721 495 736 469 L736 457 Q725 450 721 448 Q688 375 664 299 Q615 239 580 180 Q564 170 557 161 L545 161 Q521 178 512 204 Q482 248 445 270 Q438 258 436 254 Q434 231 420 155 Q414 143 408 133 L396 133 Q373 162 373 202 Q375 233 383 313 Q371 321 367 319 Q316 287 293 272 Q283 258 283 252 Q281 211 277 164 Q285 129 287 112 Q297 96 320 69 Q354 59 375 49 Q455 45 512 36 Q555 36 596 36 Q650 49 719 55 Q770 80 820 86 Q861 114 893 129 Q916 174 959 209 Q973 217 979 200 L979 147 Q959 100 947 79 Q938 69 926 59 Q850 20 824 10 Q793 8 760 -5 Q738 -13 721 -25 Q666 -19 613 -31 Q527 -31 441 -29 Q408 -15 367 -15 Q338 -7 307 0 Q289 22 273 22 Q248 47 240 59 Q219 110 217 161 L217 205 Q211 211 207 209 Q148 182 109 151 L82 151 Q49 157 20 174 L20 196 Q31 205 57 211 Q64 217 84 215 Q129 246 205 272 Q221 284 227 299 Q215 323 201 346 Q197 362 197 381 Q197 395 205 395 Q219 401 238 381 Q266 354 281 336 Q289 329 297 325 Q338 344 393 385 Q398 455 410 600 Q406 608 406 618 Q361 659 348 704 ZM633 446 Q611 438 602 426 L557 426 Q504 409 467 377 Q455 377 455 366 Q445 336 445 295 Q449 289 451 286 Q475 282 490 278 Q518 254 543 241 Q551 245 559 248 Q582 280 604 329 Q611 371 637 409 Q637 430 639 440 Q637 446 633 446 Z" /><glyph glyph-name="uni4E61" unicode="&#x4e61;" d="M711 442 Q721 448 736 444 Q754 426 783 409 L783 385 Q734 317 680 207 Q623 151 586 92 Q477 -13 420 -66 Q354 -95 314 -117 L281 -117 L281 -103 Q320 -70 355 -54 Q463 53 570 161 Q574 180 582 196 Q596 211 627 248 L701 393 Q701 426 711 442 ZM449 815 Q455 821 467 817 Q498 791 529 766 Q535 754 535 729 Q408 491 396 469 Q393 461 402 455 Q430 469 457 483 Q467 487 479 477 L479 467 Q459 448 428 420 Q365 375 289 338 L270 338 Q240 352 217 371 L217 391 Q246 409 279 414 Q303 448 334 471 Q371 530 391 565 Q422 655 457 731 Q457 754 447 774 Q443 799 449 815 ZM559 586 Q559 590 568 590 Q604 590 635 569 Q639 559 643 549 Q639 518 639 496 Q617 461 578 395 Q545 358 520 315 Q500 303 490 295 Q488 295 488 293 Q490 291 496 287 Q539 305 572 315 Q576 319 590 313 L590 297 Q561 282 537 262 Q432 205 320 162 Q311 162 301 164 L266 192 L266 209 Q313 235 381 248 Q404 270 438 289 Q465 334 502 368 Q541 450 563 491 Q574 522 576 530 Q561 565 559 586 Z" /><glyph glyph-name="uni4E66" unicode="&#x4e66;" d="M385 834 Q395 844 410 838 Q426 830 438 809 Q455 805 469 795 Q469 786 473 778 Q467 707 467 625 Q467 614 484 614 Q541 643 607 655 Q621 659 631 653 Q650 633 670 614 L670 590 Q639 545 596 463 L607 452 L639 452 Q721 475 803 493 Q814 495 828 489 Q848 473 883 442 L883 412 Q861 358 793 204 Q758 155 725 123 L693 123 Q645 147 600 170 L580 190 L580 204 Q637 196 680 182 Q691 190 703 190 Q746 252 771 307 Q781 358 789 411 Q779 420 771 420 Q684 414 596 409 Q549 393 516 373 Q498 377 475 371 Q461 360 461 342 Q463 194 463 45 Q453 -31 443 -74 Q430 -109 414 -142 L395 -142 Q389 -101 391 -70 Q395 18 404 82 Q404 211 404 340 Q396 350 391 348 Q350 330 314 307 Q279 295 244 289 Q221 282 193 262 Q139 270 115 278 L115 291 Q119 299 133 303 Q146 305 176 305 Q258 338 367 371 Q379 379 402 403 Q404 452 402 504 Q398 518 395 520 Q320 496 299 489 Q270 489 242 495 Q236 504 238 514 Q244 530 258 532 L305 532 Q320 543 348 543 Q377 557 408 582 L408 750 Q389 770 383 782 Q375 797 375 813 Q375 829 385 834 ZM541 586 Q506 579 469 563 Q459 541 457 520 Q457 475 463 422 L473 412 Q504 420 518 426 Q527 436 533 440 Q561 500 580 557 L580 577 L570 586 L541 586 ZM693 768 Q717 774 754 770 Q789 758 799 754 Q826 739 838 729 Q840 723 863 668 Q863 659 857 653 Q834 645 822 645 Q813 649 803 653 Q756 704 730 733 Q717 741 693 756 L693 768 Z" /><glyph glyph-name="uni4E70" unicode="&#x4e70;" d="M486 621 Q498 627 523 623 Q539 614 555 588 Q559 571 570 539 L570 475 L555 354 Q551 334 568 321 Q607 329 625 336 Q635 340 650 334 Q670 338 688 344 Q771 354 850 354 Q908 340 947 321 L947 287 Q939 284 924 272 Q861 278 811 289 Q721 289 631 291 Q598 287 570 272 L539 272 Q508 209 488 145 Q486 141 455 84 Q426 43 391 2 Q342 -31 281 -62 L256 -62 Q246 -52 250 -46 Q293 -13 371 57 Q400 102 430 137 Q447 184 461 213 Q461 235 455 246 Q449 250 439 250 Q406 233 377 213 Q314 194 273 178 L191 137 Q166 137 146 147 Q98 147 66 139 Q55 145 53 147 Q49 170 55 178 L125 198 Q145 200 178 200 Q279 233 350 250 Q373 264 406 278 Q428 286 479 293 Q498 321 504 346 Q510 440 504 524 Q496 555 482 598 Q480 612 486 621 ZM480 729 Q584 758 727 786 L791 786 Q799 786 807 772 Q830 737 836 729 Q836 715 832 684 Q781 647 736 612 Q658 588 623 577 Q615 577 605 579 L605 588 Q654 627 703 666 Q709 686 727 700 L727 719 L717 733 Q689 733 668 739 Q645 737 629 723 Q607 733 590 729 Q576 721 561 715 Q537 715 520 709 Q504 705 498 692 Q463 674 428 668 Q385 645 332 606 Q316 598 311 582 Q283 582 266 563 L223 563 Q193 575 176 586 L176 618 Q211 612 242 618 Q283 633 361 672 Q402 692 467 715 Q475 721 480 729 ZM594 168 Q588 182 602 188 Q629 188 654 174 Q709 120 762 84 Q785 45 795 12 L791 -46 Q785 -66 777 -84 L746 -84 Q727 -58 732 -31 Q703 22 701 26 Q639 94 594 168 ZM314 530 Q332 539 365 534 Q396 526 426 516 Q436 516 455 500 Q455 471 453 455 L439 444 L426 444 Q398 465 369 487 Q330 495 316 495 Q313 504 307 514 Q301 522 314 530 ZM256 360 Q271 375 301 373 Q328 366 355 360 Q379 354 389 332 L389 311 L377 291 Q293 325 271 334 Q252 346 256 360 Z" /><glyph glyph-name="uni4E86" unicode="&#x4e86;" d="M646 737 Q646 764 666 776 L699 776 Q725 756 740 731 L740 702 Q670 625 611 543 Q596 520 564 469 Q570 436 598 409 Q604 377 641 237 Q635 190 637 137 Q621 92 611 32 Q584 -23 561 -58 Q551 -58 545 -76 L516 -76 Q484 -48 455 -27 Q428 4 418 14 Q410 37 432 39 Q447 43 463 32 Q486 16 502 4 L514 4 Q547 79 553 96 Q553 133 564 168 Q559 215 559 256 Q545 336 535 418 Q518 432 512 446 Q531 516 568 596 Q609 645 629 692 Q613 692 598 686 Q586 674 568 662 Q459 604 377 571 L340 571 Q320 579 285 596 Q264 610 260 623 L260 651 Q262 655 277 661 L303 661 Q316 653 336 649 Q354 653 400 653 Q523 709 646 737 Z" /><glyph glyph-name="uni4E8B" unicode="&#x4e8b;" d="M402 789 Q414 807 428 811 Q447 817 467 807 Q469 797 479 786 Q479 787 479 789 Q487 780 494 772 Q488 729 498 719 Q555 731 646 745 Q691 745 723 737 Q732 733 760 719 Q771 709 771 696 Q760 688 756 680 Q693 680 666 684 Q602 690 541 678 Q523 684 516 682 Q498 676 486 657 Q480 633 492 616 Q600 625 623 629 Q633 620 650 608 Q654 592 654 582 Q631 555 596 534 Q588 528 582 516 Q582 502 580 489 Q564 483 549 471 L514 471 Q492 467 480 452 L480 414 Q484 405 494 399 Q559 411 621 428 Q627 442 646 450 L668 450 Q695 444 727 432 Q729 430 744 407 Q744 401 736 381 Q732 379 715 362 Q715 358 727 358 Q809 368 885 362 Q922 356 947 327 L947 305 Q939 297 934 293 Q912 299 883 295 Q861 299 840 305 Q775 311 699 307 Q691 307 688 301 Q658 260 629 221 L672 209 Q682 202 676 190 Q672 182 668 159 Q666 159 658 155 Q635 157 615 161 Q564 161 500 147 L492 137 Q486 88 494 36 Q484 16 484 -37 Q480 -64 465 -101 Q459 -109 455 -117 L428 -117 Q395 -86 367 -70 Q344 -41 324 -15 Q322 -5 328 -5 Q334 0 348 -7 Q369 -21 410 -37 L414 -33 Q420 -15 432 16 Q436 41 436 118 Q430 131 424 131 Q393 129 359 116 Q334 106 313 92 Q295 92 283 90 Q273 92 268 98 Q264 110 270 116 Q299 135 355 159 Q387 168 424 172 Q430 178 438 178 Q438 196 439 202 Q434 229 420 241 Q408 245 393 239 Q381 235 348 219 L322 219 Q295 204 262 200 Q230 192 207 176 Q178 170 150 170 Q137 174 135 176 L102 176 Q72 180 53 192 L53 209 Q57 219 66 219 Q94 221 152 221 Q225 237 324 266 Q357 272 424 280 Q432 287 436 293 L436 346 Q430 358 420 352 Q383 346 350 319 Q305 313 258 307 Q250 311 242 315 Q240 344 258 344 Q313 352 338 358 Q375 381 424 387 Q430 395 436 407 Q432 418 432 442 L420 448 Q391 446 369 428 Q355 422 350 411 Q332 409 326 420 Q311 471 303 506 Q285 524 258 543 Q248 549 252 553 Q258 565 264 565 Q291 569 316 563 Q373 577 434 598 Q432 627 439 647 Q436 657 432 657 Q342 631 275 616 Q252 606 234 592 L199 592 Q152 598 111 610 L102 620 Q98 635 109 637 Q148 641 184 637 Q227 653 246 659 Q281 668 313 670 Q391 690 430 702 Q434 709 438 715 Q436 725 434 735 Q400 772 406 786 L402 789 ZM574 387 Q543 381 520 370 L494 370 Q480 366 480 356 Q480 334 484 315 Q484 309 494 303 Q521 305 553 321 L578 321 Q617 334 627 340 Q643 358 645 381 Q633 387 621 387 L574 387 ZM545 284 Q512 274 484 260 Q484 245 492 198 Q496 194 514 194 Q559 209 604 221 Q596 237 596 248 Q605 260 611 274 Q611 284 607 284 L545 284 ZM420 571 Q414 571 395 563 Q361 537 352 530 Q352 502 363 473 Q367 471 371 469 Q396 485 420 485 Q428 489 434 495 Q430 534 439 563 Q432 571 420 571 ZM533 586 Q512 590 496 584 Q484 579 484 571 Q484 545 480 506 Q484 500 496 500 Q510 504 523 526 Q541 549 549 577 Q539 586 533 586 Z" /><glyph glyph-name="uni4E8E" unicode="&#x4e8e;" d="M398 588 Q404 598 418 598 Q434 600 453 594 Q480 580 496 569 Q498 551 518 545 Q605 563 693 575 Q758 580 828 580 Q840 579 871 571 Q906 559 934 537 L934 518 Q902 502 891 498 L822 498 Q764 508 756 508 L652 508 Q566 500 525 493 Q518 487 512 479 Q516 426 520 321 Q516 297 512 243 L512 75 Q502 24 479 -48 Q473 -54 457 -72 L432 -72 Q404 -52 391 -45 Q363 -41 348 -31 Q328 -19 330 -5 Q336 6 346 8 Q377 10 416 4 Q424 12 432 14 Q439 65 447 90 Q457 231 459 366 Q455 424 455 454 Q443 471 432 469 Q418 463 395 448 L266 409 Q227 389 188 371 Q129 371 88 379 L68 399 Q64 411 70 418 Q86 426 94 426 L152 430 Q266 469 379 493 Q402 504 432 516 Q430 528 430 537 Q414 551 398 575 L398 588 ZM338 717 Q393 733 502 772 L545 772 Q561 762 561 743 Q545 723 539 713 Q469 688 396 664 Q359 670 328 668 Q309 678 266 702 Q260 715 271 721 Q316 721 338 717 Z" /><glyph glyph-name="uni4E9B" unicode="&#x4e9b;" d="M273 621 Q279 631 299 625 L326 598 Q357 586 387 555 Q391 522 398 495 Q398 489 416 489 Q459 512 479 520 Q512 522 547 514 Q549 506 553 487 Q535 469 516 459 Q467 454 416 438 Q402 434 402 422 Q395 366 395 286 Q402 278 412 278 Q482 313 553 336 Q564 338 574 334 Q570 428 570 483 Q561 496 561 514 Q574 565 576 582 Q559 678 555 705 Q549 723 539 729 Q523 762 529 797 Q539 801 557 799 L604 745 L623 741 Q631 733 639 719 Q639 707 631 676 L631 567 Q623 547 623 534 Q625 455 625 377 Q625 371 639 366 Q666 373 691 389 Q736 403 820 416 Q846 422 877 412 L889 401 Q885 389 885 377 Q859 364 834 352 Q748 344 705 338 Q666 329 639 309 Q639 274 662 243 Q684 221 713 209 Q748 202 768 196 L844 196 Q867 192 910 184 Q924 178 928 168 L928 147 Q920 141 910 137 Q834 131 754 131 Q719 145 684 155 Q654 174 627 186 Q619 202 605 215 Q598 243 578 293 L578 295 L465 260 Q369 221 275 164 Q260 164 254 159 Q209 139 168 110 L86 110 Q78 114 72 120 L72 145 Q78 157 92 162 L121 162 Q158 178 207 188 L217 202 Q225 229 227 243 Q223 280 209 303 Q180 329 154 362 Q148 377 164 383 Q189 383 213 373 Q229 366 256 346 Q270 327 277 299 Q273 276 273 227 Q279 223 285 221 Q305 229 348 252 Q354 352 354 448 Q338 477 332 514 Q301 557 273 602 L273 621 ZM602 10 Q686 14 754 8 Q773 4 799 -19 L799 -56 L791 -62 L691 -62 Q656 -54 641 -52 Q580 -52 523 -58 Q502 -66 451 -74 Q430 -80 416 -93 Q318 -99 244 -97 Q227 -97 213 -88 L213 -70 Q221 -60 230 -56 Q248 -46 275 -43 L338 -43 Q416 -29 473 -9 Q516 -5 602 10 ZM441 133 Q480 155 531 164 Q555 170 580 159 Q590 149 598 141 Q598 133 588 120 Q545 106 520 96 Q418 80 363 77 Q346 86 332 100 Q326 116 338 121 Q391 127 441 133 Z" /><glyph glyph-name="uni4EAE" unicode="&#x4eae;" d="M320 830 Q393 825 447 762 Q455 731 459 713 Q527 735 615 723 Q633 705 625 682 Q617 666 602 659 Q543 657 482 657 Q381 627 299 598 Q219 586 162 612 Q150 629 164 639 Q180 637 219 629 Q311 655 385 682 Q393 690 400 705 Q359 760 320 830 ZM457 569 Q387 567 336 524 Q340 498 354 479 Q393 487 416 487 Q451 528 457 569 ZM408 602 Q451 608 537 623 Q547 618 570 602 Q576 584 566 559 Q490 514 445 440 Q412 440 379 434 Q338 422 338 389 Q455 414 572 442 Q639 450 711 438 Q719 411 742 381 Q742 364 730 346 Q672 311 604 311 Q592 323 600 336 Q617 356 635 377 Q611 393 586 395 Q506 383 424 377 Q244 307 168 282 Q160 237 148 162 Q125 151 107 174 Q96 219 107 266 Q88 303 68 340 Q113 364 154 323 Q219 354 297 364 Q297 418 287 491 Q256 520 223 543 Q217 559 229 565 Q262 569 291 553 Q330 571 408 602 ZM279 231 Q361 252 447 309 Q490 309 533 278 Q537 270 541 252 Q525 225 500 207 Q465 137 465 55 L477 14 Q500 -35 541 -54 Q641 -72 748 -66 Q797 -56 854 -29 Q867 86 887 161 Q920 75 930 -35 Q920 -54 914 -72 Q842 -115 762 -129 Q656 -129 574 -115 Q510 -95 461 -74 Q420 -31 408 24 Q414 147 443 252 Q398 233 328 190 Q316 92 281 2 Q256 -21 205 -76 Q168 -97 131 -103 Q107 -86 121 -66 Q139 -66 152 -60 Q207 0 246 53 Q258 108 258 170 Q238 188 221 215 Q215 239 229 252 Q254 252 279 231 Z" /><glyph glyph-name="uni4EB2" unicode="&#x4eb2;" d="M420 756 Q396 793 420 821 Q451 784 508 746 Q510 721 520 692 Q594 713 656 684 Q656 662 639 651 Q609 643 551 623 Q566 606 592 600 Q605 577 607 551 Q584 518 588 481 Q631 495 705 512 Q801 518 900 512 Q934 500 951 465 Q947 452 941 438 Q766 446 678 448 Q539 432 445 387 Q477 366 496 342 Q490 313 512 291 Q588 321 676 321 Q699 315 697 286 Q604 250 510 221 Q514 120 518 -84 Q508 -105 486 -119 Q443 -101 420 -64 Q395 -19 420 10 Q436 6 447 -11 Q461 116 449 213 Q348 202 266 166 Q271 153 287 121 Q279 84 287 43 Q277 16 250 -19 Q227 -23 215 -11 Q227 49 223 116 Q209 133 205 159 Q223 182 223 204 Q328 239 439 274 Q449 291 445 315 Q432 350 406 377 Q283 340 168 295 Q98 303 64 303 Q47 334 82 346 Q205 358 313 395 Q295 430 271 459 Q266 489 291 489 Q311 483 334 465 Q381 506 432 514 Q404 454 352 412 Q441 418 514 463 Q523 495 547 553 Q531 600 527 620 Q455 596 381 575 Q334 575 252 571 Q240 579 246 590 Q314 616 383 623 Q422 645 461 668 Q459 727 420 756 ZM637 188 Q633 205 650 211 Q725 190 789 141 Q811 118 836 79 Q842 39 834 6 Q813 -7 797 4 Q727 116 637 188 Z" /><glyph glyph-name="uni4EBA" unicode="&#x4eba;" d="M311 672 Q373 678 439 676 Q447 676 465 670 Q469 655 469 639 Q461 625 451 612 Q430 596 406 580 Q357 520 320 438 Q316 430 322 420 Q361 414 406 399 Q430 387 443 381 Q531 305 637 229 Q730 172 836 123 Q885 120 936 98 Q957 79 977 53 L977 26 Q967 26 959 22 L912 22 Q850 37 820 45 Q756 73 691 102 Q641 137 588 174 Q486 278 422 334 Q379 356 350 366 Q318 379 301 381 Q277 352 271 317 Q209 231 178 190 Q115 131 92 108 Q70 102 49 88 Q29 88 23 96 L23 118 Q96 178 162 254 Q217 340 242 383 Q236 397 236 411 Q252 424 266 444 Q303 534 352 629 Q352 639 348 639 Q322 639 311 651 L311 672 Z" /><glyph glyph-name="uni4EBF" unicode="&#x4ebf;" d="M621 682 Q645 696 674 684 Q689 657 713 633 L713 612 Q691 584 674 575 Q625 489 559 393 Q516 319 490 262 Q471 223 457 162 Q453 139 453 88 Q455 75 469 55 L520 30 Q566 24 664 12 Q701 10 742 12 Q773 20 820 20 Q859 45 891 59 Q943 149 986 207 L994 207 Q992 161 994 110 Q990 96 986 69 Q971 41 955 16 Q932 0 889 -31 Q854 -33 814 -46 Q701 -50 646 -50 Q602 -43 516 -27 Q457 -4 441 4 Q414 28 400 59 Q396 86 393 98 Q396 133 396 149 Q410 184 424 241 Q463 309 490 383 Q510 422 541 471 Q543 495 551 528 Q547 532 545 534 Q543 534 541 532 Q490 493 467 477 Q449 475 400 467 Q385 471 369 477 L369 500 Q426 518 486 545 Q518 573 598 637 Q607 662 621 682 ZM256 739 Q256 752 264 752 L285 752 Q314 729 334 690 Q332 670 324 627 Q299 588 285 551 Q242 512 209 459 Q209 455 211 452 Q246 430 264 412 Q277 379 291 323 Q273 174 262 10 Q256 -5 240 -17 L211 -17 Q191 16 184.5 40.5 Q178 65 182 90 Q197 137 213 184 Q213 237 234 280 Q230 305 230 346 Q215 383 205 424 Q199 428 191 434 Q133 383 90 336 Q45 297 18 278 L4 278 L4 295 Q23 321 49 336 Q111 403 141 436 Q174 498 217 549 Q240 594 262 641 Q262 664 271 688 Q256 709 256 739 Z" /><glyph glyph-name="uni4EC0" unicode="&#x4ec0;" d="M588 815 Q611 827 635 815 Q650 791 670 768 Q652 623 678 485 Q783 514 895 498 Q920 487 941 459 Q941 452 938 436 Q854 424 758 438 Q711 438 678 414 Q689 184 676 -84 Q666 -97 650 -125 Q627 -125 627 -105 Q627 178 605 409 Q523 397 453 368 Q412 373 400 407 Q471 426 553 436 Q582 448 611 471 Q600 600 600 731 Q578 752 570 762 Q568 793 588 815 ZM311 705 Q311 719 318 719 L338 719 Q363 696 387 659 Q385 629 375 600 Q348 555 338 524 Q285 465 264 432 L264 426 Q293 409 318 383 Q332 338 344 293 Q330 186 316 -9 Q313 -19 295 -41 L264 -41 Q248 -13 238 18 Q230 49 236 69 Q256 120 266 161 Q266 209 287 252 Q281 289 281 319 Q266 366 260 395 Q254 401 246 409 Q189 360 146 307 Q111 278 74 250 L59 250 L59 270 Q74 287 105 307 Q141 348 193 411 Q229 469 270 522 Q293 565 316 610 Q316 625 324 657 Q311 678 311 705 Z" /><glyph glyph-name="uni4ECA" unicode="&#x4eca;" d="M375 702 Q352 731 359 750 Q416 750 455 717 Q428 668 393 621 Q525 547 680 442 Q789 409 875 393 Q926 377 967 350 Q967 334 957 325 Q932 325 900 311 Q779 332 652 383 Q609 418 570 459 Q473 534 363 579 Q246 403 102 241 Q76 231 55 209 Q31 209 35 229 Q150 336 240 469 Q318 579 375 702 ZM313 399 Q375 434 473 418 Q494 411 510 389 Q510 383 502 368 Q477 358 453 358 Q377 371 313 399 ZM496 293 Q535 305 574 297 Q602 264 613 250 Q555 174 498 57 Q447 2 424 -27 Q389 -50 355 -50 Q400 39 469 114 Q482 153 506 231 Q367 200 252 157 Q223 159 223 182 Q363 231 496 293 Z" /><glyph glyph-name="uni4ECE" unicode="&#x4ece;" d="M443 719 Q443 733 457 733 L480 733 L561 653 Q537 516 512 379 Q504 368 500 350 Q500 334 502 327 Q555 293 592 264 Q689 184 787 104 Q805 100 834 82 Q912 65 945 55 Q947 51 979 10 L979 -21 L969 -31 Q916 -19 875 -13 Q838 -2 801 12 Q768 32 738 45 Q619 164 561 227 Q529 252 496 278 Q486 278 486 270 Q439 186 406 100 Q389 88 377 65 Q322 18 297 -5 Q275 -11 270 -17 Q264 -17 256 -15 L256 4 Q303 49 336 92 Q381 174 418 256 Q430 323 459 377 Q463 428 479 539 Q482 555 486 565 Q482 610 488 635 Q477 649 443 690 L443 719 ZM141 600 Q170 612 201 600 Q230 592 262 561 Q238 463 229 387 Q256 373 324 342 Q355 311 385 282 Q395 264 389 254 Q385 246 371 233 Q357 237 342 243 Q295 284 242 319 Q230 336 217 354 Q195 295 182 250 Q158 229 135 190 Q78 133 47 104 L20 104 L20 123 Q70 188 119 252 Q150 342 164 389 Q166 442 170 496 Q150 553 141 600 Z" /><glyph glyph-name="uni4ED6" unicode="&#x4ed6;" d="M473 784 Q480 797 502 791 Q539 760 568 709 Q563 598 551 473 Q551 457 561 446 Q605 469 688 510 Q699 528 715 532 Q748 534 777 520 Q791 496 805 473 Q805 465 801 442 Q787 434 760 414 Q701 348 629 256 Q604 246 578 246 Q572 248 570 252 Q570 254 572 258 Q623 325 666 393 Q672 411 688 446 Q684 450 680 454 Q621 432 559 395 Q543 383 541 370 Q535 330 523 291 Q518 268 506 256 Q490 256 484 262 Q479 299 484 323 Q479 334 471 334 Q434 323 408 299 Q406 287 406 254 Q406 231 420 194 Q426 178 443 162 Q473 151 504 135 Q559 133 629 123 Q703 129 721 123 Q791 139 828 145 Q857 164 893 180 L975 254 L982 254 Q982 211 980 170 Q971 159 963 139 L936 116 Q879 90 852 82 Q801 77 742 61 L613 65 Q584 71 502 80 Q449 96 416 110 Q389 129 379 145 Q361 170 355 202 L355 241 Q352 246 346 252 Q336 256 330 252 Q283 225 244 188 Q225 188 219 194 Q215 219 221 237 Q230 252 244 258 Q318 297 354 319 Q359 340 367 383 Q354 407 338 430 L338 452 Q338 459 350.5 459 Q363 459 379 452 Q420 411 428 401 Q422 385 436 370 Q443 370 451 371 Q473 383 486 395 Q494 428 502 463 Q502 594 512 688 Q496 709 479 733 Q461 762 473 784 ZM107 330 Q107 336 113 336 Q123 342 137 329 Q164 303 191 256 Q186 246 195 231 Q193 170 184 106 Q178 67 170 30 Q164 -5 172 -35 Q170 -58 160 -82 L150 -95 L115 -95 L107 -82 Q105 -37 92 2 Q107 86 123 147 Q123 180 131 235 Q113 266 107 305 L107 330 ZM160 649 Q174 659 195 653 Q211 645 225 637 Q244 614 264 582 L264 563 Q244 534 205 471 Q150 412 125 381 Q86 356 59 330 Q39 319 18 319 L18 334 Q43 362 82 395 Q113 442 131 465 Q156 522 191 563 Q186 596 180 612 Q170 623 158 635 Q156 647 160 649 Z" /><glyph glyph-name="uni4EE5" unicode="&#x4ee5;" d="M553 727 Q559 745 580 739 Q586 725 600 723 Q635 694 660 655 Q662 610 662 510 Q643 430 637 356 Q615 340 609 313 L596 254 Q598 252 633 245 Q656 245 686 233 Q701 223 719 205 Q752 194 797 170 Q848 120 898 69 Q906 53 922 14 L922 -33 Q916 -33 912 -41 L889 -41 Q861 -7 836 8 Q822 32 807 57 Q748 96 717 143 Q650 178 596 213 Q578 221 572 204 Q564 188 557 153 Q529 110 475 32 Q443 12 414 -25 Q396 -31 381 -31 L381 -11 Q387 -4 402 -4 Q430 36 471 73 Q504 145 553 239 L553 268 L563 276 L563 303 Q570 338 588 366 Q588 424 592 452 Q592 457 600 457 Q600 561 604 608 Q586 653 561 692 Q557 709 553 727 ZM78 438 Q74 450 80 455 L104 455 Q115 444 137 438 Q164 414 182 395 Q184 370 201 278 Q207 215 201 151 Q229 166 242 176 Q246 198 250 205 Q258 221 281 248 Q285 252 291 248 Q281 198 271 174 L262 159 Q254 133 246 108 Q193 47 156 -7 L121 -7 L92 22 Q78 41 80 59 Q100 77 113 86 Q117 123 139 151 Q135 190 146 211 Q131 268 131 342 Q113 375 109 397 Q84 420 78 438 ZM289 522 Q303 537 320 532 Q340 508 363 483 L383 483 L424 528 Q436 528 443 526 L443 475 Q400 442 375 407 Q363 397 352 393 L330 414 Q322 434 314 455 Q297 473 289 489 L289 522 Z" /><glyph glyph-name="uni4EEC" unicode="&#x4eec;" d="M848 657 L855 661 Q871 666 885 659 Q910 643 941 621 Q934 575 934 504 Q922 498 922 483 Q922 450 920 416 Q920 403 932 379 Q924 262 924 106 Q924 96 936 82 Q938 24 938 -33 Q926 -45 920 -62 Q906 -74 891 -74 Q855 -35 822 -23 Q791 20 758 61 Q758 77 760 77 L787 77 Q826 49 848 30 Q859 30 869 37 Q869 100 859 135 Q869 186 871 219 Q855 248 867 274 Q867 280 873 286 L873 362 Q867 379 859 397 Q855 420 871 442 Q871 504 859 573 L848 590 Q813 588 777 588 Q754 588 734 573 L709 573 Q686 557 672 555 Q658 561 646 573 L646 586 L672 608 Q771 643 813 657 L848 657 ZM297 754 Q293 774 299 774 L320 774 Q354 746 389 711 Q379 674 365 643 Q334 596 313 547 Q297 547 291 532 Q283 524 279 516 Q246 489 230 463 L230 424 Q240 405 268 381 Q273 356 279 313 Q273 243 277 149 Q270 145 268 135 L268 32 Q252 32 252 18 L221 18 L203 34 Q197 49 199 65 L189 75 L189 127 Q209 186 217 215 Q223 297 217 379 Q203 397 203 409 L182 409 Q148 371 90 325 Q74 317 61 317 Q57 332 63 340 Q90 352 115 375 Q148 426 197 471 Q223 508 273 586 Q281 623 301 670 Q309 674 314 680 L314 731 Q301 745 297 754 ZM398 467 Q408 483 426 477 Q441 465 451 455 Q457 416 479 366 Q467 346 482 315 Q473 260 469 241 Q465 237 461 217 L461 194 Q451 157 424 106 L395 106 L391 116 Q383 143 389 166 Q396 186 398 190 L398 235 Q404 254 414 284 Q408 352 414 411 Q396 436 398 467 ZM514 735 Q514 737 523 737 Q543 737 570 723 L588 702 Q596 672 604 604 Q596 588 576 569 L561 569 Q539 582 535 602 Q533 631 535 649 Q525 662 516 678 Q516 717 514 735 Z" /><glyph glyph-name="uni4F17" unicode="&#x4f17;" d="M488 424 Q482 448 498 459 L531 459 Q557 442 598 407 Q561 243 549 192 Q656 135 773 55 Q807 47 830 34 Q883 28 930 10 L957 -17 Q957 -46 953 -62 Q924 -60 867 -60 Q793 -41 746 -17 Q660 59 543 139 Q533 143 527 135 Q498 96 480 51 Q445 12 426 -7 Q385 -27 352 -48 Q334 -48 330 -50 L330 -33 L412 49 Q434 92 463 131 Q477 178 500 217 L504 276 Q504 282 516 291 Q510 313 516 330 Q516 340 525 346 L525 381 Q498 405 488 424 ZM199 340 Q229 346 256 327 Q268 317 289 291 Q277 196 238 121 Q213 96 189 53 Q129 -2 68 -29 Q47 -29 41 -19 Q76 20 121 49 Q180 139 215 237 Q201 301 199 340 ZM352 735 Q352 762 379 756 Q412 731 439 700 Q449 684 449 659 Q422 618 402 580 Q293 459 195 364 Q143 332 90 325 Q84 338 92 346 Q146 364 189 397 Q232 455 279 496 Q338 582 377 666 Q371 707 352 735 ZM453 559 Q445 580 465 586 Q549 571 664 537 Q711 520 729 473 Q727 455 717 444 Q592 496 482 530 L453 559 ZM305 225 Q379 248 439 209 Q434 180 404 174 Q355 184 305 196 Q287 213 305 225 Z" /><glyph glyph-name="uni4F1A" unicode="&#x4f1a;" d="M373 758 Q391 780 414 780 Q438 786 461 780 Q473 774 490 762 Q492 752 492 743 Q488 731 473 715 Q439 700 422 676 Q416 670 424 661 Q461 662 498 651 Q520 635 547 625 Q557 604 572 592 Q623 555 645 541 Q729 502 811 465 Q842 461 922 446 Q947 436 969 409 L969 387 Q951 377 934 373 Q867 379 789 395 Q750 420 705 436 Q689 448 664 473 Q602 500 559 534 Q527 569 514 586 Q496 598 488 606 Q469 608 438 616 Q395 612 373 612 Q314 545 281 477 Q223 416 168 338 Q141 315 123 293 Q94 284 59 260 Q45 260 31 262 L31 284 Q63 307 133 362 Q176 426 236 496 Q275 545 299 606 Q336 662 381 725 Q373 752 373 758 ZM504 301 Q537 307 576 307 Q588 307 600 301 Q611 291 611 280 Q598 262 588 241 Q529 241 490 227 Q443 219 410 196 Q381 127 357 55 Q355 39 369 37 Q438 65 492 75 Q496 73 498 71 Q498 57 488 41 Q438 16 369 -11 Q326 -35 268 -78 Q244 -76 221 -62 Q215 -54 209 -46 L209 -23 Q252 -7 273 -2 Q283 10 293 22 Q297 37 342 176 Q338 186 332 186 Q314 178 295 172 L207 172 Q188 176 166 192 L166 213 Q225 225 287 225 Q313 241 332 245 Q395 256 449 274 Q471 287 504 301 ZM512 170 Q512 178 524.5 178 Q537 178 549 174 Q592 118 643 71 Q643 59 654 41 Q646 -13 646 -50 Q643 -72 629 -84 L605 -84 Q594 -70 594 -56 Q594 -39 592 -19 Q578 -4 572 16 Q570 30 570 59 Q553 86 531 104 Q512 139 512 170 ZM396 420 Q432 440 479 446 L510 446 Q523 436 523 414 Q512 409 504 395 Q475 383 445 371 Q400 371 355 373 Q326 389 313 399 Q307 416 320 420 Q355 432 396 420 Z" /><glyph glyph-name="uni4F26" unicode="&#x4f26;" d="M578 457 Q602 467 635 457 Q654 452 672 430 Q672 403 650 381 Q625 364 598 340 Q559 317 520 295 Q512 291 508 278 Q492 196 486 71 Q490 51 510 28 Q529 18 553 12 L602 12 Q637 22 697 32 Q717 39 736 47 Q740 55 750 65 Q750 120 762 161 Q764 172 779 168 Q791 151 801 133 Q805 106 820 55 Q820 41 813 18 Q805 2 791 -7 Q750 -21 723 -35 Q672 -43 646 -48 L516 -48 Q482 -35 453 -11 Q441 20 436 37 L436 184 Q439 207 443 250 Q438 264 424 272 Q424 297 432 307 Q404 321 381 338 L381 354 Q383 362 395 362 Q412 364 441 358 Q463 350 492 330 Q494 338 508 338 Q545 385 594 414 Q594 422 598 424 Q588 434 578 446 L578 457 ZM484 688 Q479 729 479 750 Q508 754 531 748 Q543 745 557 735 Q557 723 559 711 Q539 672 531 635 Q531 631 543 625 Q590 625 631 612 Q674 592 771 543 Q934 506 941 504 Q963 493 986 467 L982 434 Q977 428 967 426 Q869 436 834 446 Q799 463 754 477 Q695 514 635 551 Q580 579 545 590 Q520 596 504 590 Q438 510 393 446 Q367 426 332 385 Q322 377 303 371 L303 391 Q322 414 332 424 Q350 450 441 580 Q459 639 484 688 ZM168 459 Q164 479 176 479 Q203 473 229 446 Q244 401 260 356 Q264 268 258 196 Q244 166 240 131 Q242 57 242 -15 Q236 -37 219 -56 Q199 -56 180 -46 Q172 -43 168 -33 Q166 12 158 73 Q166 106 189 168 Q195 278 201 360 Q191 399 191 428 Q180 444 168 459 ZM238 748 Q236 752 236 754 Q236 758 240 758 L268 758 Q271 758 287 750 Q311 723 320 707 L320 676 Q287 637 205 536 Q168 500 76 420 Q41 401 12 393 L12 412 Q74 459 127 512 Q172 573 258 690 Q258 711 252 727 Q242 735 238 748 Z" /><glyph glyph-name="uni4F4F" unicode="&#x4f4f;" d="M570 731 Q580 766 621 754 Q668 719 691 662 Q676 604 664 577 Q641 559 615 567 Q615 602 625 645 Q600 698 570 731 ZM279 711 Q291 729 313 727 Q355 709 385 664 Q336 539 258 414 Q283 414 303 397 Q311 340 334 227 Q311 84 299 -50 Q277 -66 260 -56 Q248 -35 225 4 Q256 157 268 207 Q264 317 264 377 Q256 401 234 397 Q182 348 127 301 Q86 270 35 276 Q109 334 178 403 Q211 452 250 500 Q297 584 314 676 Q297 694 279 711 ZM424 452 Q580 498 697 541 Q773 557 824 528 Q824 508 807 491 Q729 473 658 461 Q680 403 686 297 Q727 301 771 284 Q771 264 742 245 Q703 243 680 213 Q684 127 672 39 Q824 36 900 32 Q947 18 965 -31 Q965 -46 934 -58 Q846 -29 750 -23 Q611 -23 500 -56 Q451 -56 406 -31 Q400 -29 402 -25 Q402 -21 408 -15 Q506 -2 604 30 Q627 120 609 211 Q547 200 520 192 Q484 200 484 227 Q553 252 625 280 Q619 368 613 444 Q533 428 432 418 Q418 436 424 452 Z" /><glyph glyph-name="uni4F55" unicode="&#x4f55;" d="M281 789 Q289 797 301 795 Q324 774 361 727 Q314 608 227 502 Q264 459 283 405 Q291 223 279 39 Q262 22 240 24 Q211 55 205 88 Q229 235 227 371 Q221 426 203 477 Q148 452 109 403 Q53 371 6 364 Q43 405 107 436 Q188 520 238 590 Q270 655 291 704 Q275 752 281 789 ZM709 678 Q777 700 871 705 Q938 717 990 672 Q990 637 957 625 Q879 635 781 629 Q787 301 777 -74 Q758 -93 736 -95 Q697 -68 668 -29 Q662 -7 678 2 Q693 2 709 -7 Q717 0 725 16 Q725 284 709 584 Q699 598 689 614 Q543 580 402 532 Q373 545 357 547 Q342 559 348 575 Q441 592 553 616 Q604 639 709 678 ZM568 414 Q502 409 467 358 Q451 313 480 287 Q500 297 553 321 Q582 371 568 414 ZM447 407 Q535 455 635 471 Q654 463 670 438 Q629 370 611 278 Q547 268 477 245 Q457 221 438 211 Q416 233 412 245 Q412 284 410 325 Q379 381 346 414 Q346 428 354 434 Q416 418 447 407 Z" /><glyph glyph-name="uni4F5C" unicode="&#x4f5c;" d="M541 813 Q541 825 555 829 Q574 829 590 807 Q605 772 631 737 Q615 596 570 489 L621 489 Q721 534 830 571 Q869 571 914 545 Q918 541 918 528 Q799 495 656 446 Q680 401 693 348 Q756 364 834 364 Q857 352 850 327 Q732 291 688 276 Q688 231 693 182 Q697 168 711 166 Q781 192 859 186 Q879 180 895 159 Q893 137 865 127 Q777 127 705 120 Q691 -19 672 -117 Q646 -129 635 -111 Q643 143 629 383 Q598 442 564 481 Q543 442 512 430 Q529 489 564 598 Q566 635 574 709 Q547 752 541 813 ZM340 676 Q350 696 369 682 Q400 651 432 620 Q410 573 373 524 Q328 481 236 389 L111 311 Q98 311 92 317 Q88 321 94 330 Q168 377 219 426 Q289 502 359 604 Q336 637 340 676 ZM285 391 Q297 401 316 391 Q361 370 379 317 Q359 186 357 67 Q340 39 311 49 Q291 77 277 116 Q305 217 314 291 Q307 350 285 391 Z" /><glyph glyph-name="uni4F60" unicode="&#x4f60;" d="M391 745 Q391 774 395 782 Q461 770 502 719 Q492 608 488 467 Q463 409 449 346 Q434 352 424 362 Q436 440 451 602 Q447 643 441 684 Q406 713 391 745 ZM650 590 Q746 620 822 606 Q873 600 867 559 Q857 528 846 496 Q750 440 670 385 Q678 323 678 274 Q748 254 857 250 Q912 250 924 219 Q951 182 977 145 L975 112 Q947 112 920 114 Q873 172 799 190 Q727 207 686 219 Q672 67 670 -58 Q639 -80 594 -82 Q570 -41 559 24 Q576 24 600 28 Q611 34 617 79 Q627 229 605 352 Q572 364 568 405 Q600 401 654 389 Q695 455 744 504 Q764 524 758 534 Q754 537 744 541 Q721 555 662.5 540.5 Q604 526 574 487 L516 489 Q514 518 535 526 Q578 567 650 590 ZM391 79 Q367 161 375 266 Q426 250 469 219 Q461 174 447 104 Q424 84 391 79 ZM275 705 Q275 719 283 719 L305 719 Q334 696 354 657 Q352 637 344 594 Q318 555 305 518 Q262 479 229 426 Q229 422 230 418 Q266 397 283 379 Q297 346 311 289 Q293 141 281 -23 Q275 -39 260 -50 L230 -50 Q211 -17 203 8 Q197 32 201 57 Q217 104 232 151 Q232 204 254 246 Q250 272 250 313 Q234 350 225 391 Q219 395 211 401 Q152 350 109 303 Q64 264 37 245 L23 245 L23 262 Q43 287 68 303 Q131 370 160 403 Q193 465 236 516 Q260 561 281 608 Q281 631 291 655 Q275 676 275 705 Z" /><glyph glyph-name="uni4F69" unicode="&#x4f69;" d="M477 479 L477 481 L422 481 Q416 485 408 491 L408 518 Q408 524 418 524 Q436 526 471 526 Q494 543 529 555 Q559 563 596 555 L596 528 Q584 522 578 514 Q527 498 500 489 L520 485 Q520 465 523 434 Q551 446 580 440 Q586 455 604 455 Q613 455 631 450 Q643 432 660 414 L660 385 Q646 358 637 319 Q621 229 611 184 Q600 172 580 157 Q543 176 520 184 Q520 129 531 75 Q516 41 521 0 L514 -9 L480 -9 Q473 6 473 10 Q471 92 471 252 Q471 295 477 330 Q471 350 473 362 Q455 362 438 340 L430 313 Q428 274 428 198 Q420 190 412 184 L395 184 Q389 190 381 205 L381 366 Q383 371 391 379 Q406 385 428 377 Q451 391 473 407 Q471 426 477 479 ZM461 696 Q531 733 621 750 L721 750 Q744 733 768 709 Q764 686 752 666 Q746 592 740 524 Q746 428 750 332 Q789 202 799 170 Q816 155 834 139 Q840 118 861 96 Q871 77 893 63 Q908 71 912 71 Q922 82 943 104 Q949 106 955 100 L955 82 Q967 53 980 32 L980 -25 Q975 -41 961 -46 Q926 -46 893 -41 Q859 6 818 34 Q775 112 754 147 Q727 246 715 332 Q701 444 699 530 Q699 635 697 686 Q656 702 611 696 Q572 692 541 682 Q471 653 412 606 Q383 606 371 616 L371 631 Q416 670 461 696 ZM283 592 Q277 610 291 612 L313 612 Q340 596 354 586 Q354 553 357 471 Q334 295 311 114 Q289 82 285 43 Q262 10 232 -27 Q215 -33 199 -33 L199 -13 Q205 18 229 41 Q258 121 285 221 Q291 338 313 416 Q313 483 307 547 Q289 571 283 592 ZM104 420 Q104 430 111 430 Q123 434 133 418 Q164 389 188 352 Q182 338 191 329 Q188 268 180 207 Q174 168 166 131 Q166 80 160 28 Q156 20 150 14 L111 14 Q102 20 102 28 Q102 71 90 106 Q102 176 123 246 Q123 293 129 329 Q113 358 104 397 L104 420 ZM156 723 Q156 733 168 737 L191 737 Q207 729 219 721 Q229 711 252 674 L252 647 Q203 571 145 491 Q113 467 55 420 Q37 414 18 411 L18 430 Q45 459 104 518 Q143 584 188 651 Q184 668 176 700 Q160 711 156 723 ZM533 387 Q531 387 523 379 Q520 289 520 241 Q520 233 520 225 Q522 228 523 231 Q537 229 549 229 Q570 256 580 287 Q580 330 592 370 Q590 379 584 385 Q570 391 533 387 Z" /><glyph glyph-name="uni5019" unicode="&#x5019;" d="M504 469 Q510 500 555 489 Q576 479 588 457 Q582 438 592 420 Q674 455 764 467 Q785 463 785 440 Q770 420 746 405 Q684 403 631 370 Q670 336 689 282 Q781 305 873 286 Q885 278 893 260 Q893 241 879 221 Q781 235 684 211 Q656 194 680 164 Q779 135 873 71 Q930 24 961 -41 Q957 -64 947 -82 Q922 -88 900 -78 Q848 -13 795 45 Q732 88 668 137 Q621 80 553 8 Q533 0 523 0 Q508 6 514 16 Q584 96 611 172 Q611 194 602 194 Q527 172 455 137 Q422 137 404 147 Q377 180 350 196 Q361 317 367 379 Q350 418 338 465 Q359 487 395 455 Q408 428 422 383 Q422 276 402 184 Q418 176 441 176 Q531 217 615 250 Q631 272 625 295 Q600 348 594 362 Q545 358 504 338 Q486 344 486 360 Q506 407 529 442 Q516 463 504 469 ZM600 758 Q672 789 746 791 Q770 776 789 766 Q764 702 730 637 Q813 637 896 643 Q936 637 967 600 Q965 584 945 575 Q783 579 639 561 Q555 532 441 500 Q400 495 395 526 Q539 563 672 625 Q680 672 693 727 Q678 743 656 737 Q576 692 496 678 Q484 690 494 702 Q529 719 600 758 ZM227 364 Q209 428 203 481 Q230 473 256 448 L283 362 Q271 186 266 -2 Q260 -29 236 -46 Q205 -41 193 -15 Q189 51 186 86 Q225 219 227 364 ZM262 752 Q285 764 309 745 Q336 715 344 684 Q258 557 133 448 Q84 405 31 399 Q88 455 152 514 Q227 612 279 690 Q270 731 262 752 Z" /><glyph glyph-name="uni501F" unicode="&#x501f;" d="M633 823 Q646 842 668 830 Q709 803 727 752 L727 692 Q768 674 779 633 Q750 618 717 584 Q695 543 668 469 Q727 477 887 495 Q904 487 943 475 Q969 457 965 424 L949 407 Q783 432 654 418 Q559 393 482 379 Q441 362 406 338 Q355 338 330 342 Q318 354 322 364 Q438 403 518 426 Q494 504 469 565 Q434 565 416 582 Q432 606 469 594 Q480 616 479 635 Q432 682 445 729 Q518 702 555 633 Q613 659 658 672 Q668 754 633 823 ZM262 715 Q262 729 270 729 L291 729 Q320 705 340 666 Q338 651 330 602 Q305 563 291 526 Q250 487 213 432 Q213 428 215 424 Q254 401 270 385 Q281 356 297 293 Q279 137 268 -23 Q262 -39 246 -50 L215 -50 Q195 -17 188 10 Q182 34 186 59 Q197 92 217 155 Q217 209 240 250 Q236 276 236 319 Q217 366 209 397 Q203 401 195 407 Q158 373 119 332 Q92 311 45 272 L31 272 L31 289 Q53 319 76 332 Q129 385 145 409 Q182 475 221 524 Q244 571 268 618 Q268 641 277 664 Q262 686 262 715 ZM537 266 Q619 309 717 340 Q773 329 809 287 Q795 245 770 219 Q764 63 770 -91 Q764 -119 746 -140 L715 -140 Q701 -121 691 -95 Q705 84 705 280 Q621 280 539 233 Q523 243 523 248 Q523 256 537 266 ZM424 266 Q424 280 441 278 Q484 258 518 227 Q527 180 541 143 Q563 164 602 168 Q631 174 658 151 Q658 129 648 116 Q613 116 578 104 Q561 114 543 125 Q525 75 541 18 Q594 32 643 6 Q660 -17 637 -35 Q584 -33 537 -35 L506 -113 Q494 -113 479 -105 Q467 98 463 196 Q457 205 424 266 ZM646 584 Q592 592 547 561 Q541 491 529 426 Q582 436 625 450 Q652 514 646 584 Z" /><glyph glyph-name="uni505A" unicode="&#x505a;" d="M354 690 Q342 719 359 735 L379 735 Q410 684 430 641 Q430 584 439 506 Q457 522 486 516 Q488 516 492 506 L492 481 Q457 459 420 428 Q404 379 383 299 Q422 334 443 352 L473 352 Q480 342 488 334 L488 270 Q467 227 463 168 Q469 153 480 139 Q480 118 473 100 Q424 92 367 79 Q361 73 359 63 Q361 43 361 -7 L332 -7 Q326 2 318 12 Q311 57 299 147 Q287 182 266 209 L266 241 Q275 258 287 262 Q313 274 348 278 Q354 319 365 360 Q363 379 359 414 Q334 420 309 416 Q295 422 281 430 Q279 448 285 454 Q295 459 303 459 Q334 459 354 455 Q359 457 365 461 Q365 493 377 504 Q377 582 369 637 Q361 655 354 690 ZM635 371 Q635 383 645 383 Q648 383 656 381 Q680 366 734 330 Q730 307 723 268 Q691 196 689 190 Q689 184 693 180 Q707 166 770 108 Q820 71 871 45 Q883 45 914 34 Q932 20 959 8 Q975 -4 986 -23 L986 -39 Q979 -46 977 -60 L912 -52 Q861 -31 838 -25 Q830 -19 748 41 Q717 77 695 106 Q678 125 660 135 Q654 135 652 133 Q623 102 578 49 Q543 39 510 39 Q498 45 498 49 Q494 65 498 71 Q516 71 527 67 Q566 96 574 104 Q605 151 625 174 Q617 204 609 213 Q600 219 574 241 Q549 252 520 252 Q512 260 504 268 Q500 276 506 282 L561 282 Q611 262 652 237 Q672 264 678 295 Q674 307 674 313 Q660 321 652 334 Q635 354 635 371 ZM244 604 Q232 631 205 698 L230 698 Q271 666 309 625 L309 600 Q281 565 266 520 Q219 475 141 389 Q143 383 143 379 Q178 362 209 336 Q217 317 223 307 Q229 252 225 180 L205 63 Q209 16 209 -11 Q203 -17 203 -29 L176 -29 Q162 -23 152 -11 Q135 26 135 67 Q135 88 150 100 Q150 180 168 250 Q162 286 162 319 Q133 366 125 375 Q111 375 109 366 Q96 356 82 336 Q55 330 35 311 Q23 309 12 309 L12 325 Q21 332 59 358 Q90 393 152 455 Q182 496 209 539 Q221 575 244 604 ZM604 746 Q604 760 613 760 L637 760 Q668 741 693 713 Q693 690 689 643 Q639 491 629 459 L635 450 Q660 457 680 459 Q693 473 719 481 Q727 491 748 512 Q789 518 836 512 Q848 512 859 496 Q859 487 855 471 Q848 467 807 444 Q734 430 660 405 Q629 405 611 416 Q598 416 592 407 Q580 373 557 334 Q551 334 547 336 Q547 375 563 407 Q580 450 596 493 Q613 557 631 616 L631 672 Q609 717 604 746 ZM404 256 Q379 235 344 225 Q338 215 338 205 Q338 170 357 131 Q361 127 369 125 Q395 129 412 143 Q414 155 422 166 Q422 219 424 239 Q418 254 416 256 L404 256 Z" /><glyph glyph-name="uni505C" unicode="&#x505c;" d="M676 299 Q740 317 809 299 Q820 270 795 252 Q764 252 709 256 Q678 256 666 233 Q684 164 695 92 Q688 26 688 -11 Q676 -54 652 -97 Q633 -113 625 -119 Q568 -107 535 -86 Q531 -74 537 -68 Q582 -62 613 -48 Q633 6 639 73 Q639 143 633 202 Q617 221 604 223 Q547 204 502 176 Q465 174 443 192 Q541 254 676 299 ZM512 551 Q625 596 725 625 Q750 612 766 592 Q740 545 686 455 Q594 440 494 407 Q502 438 508 469 Q500 518 463 545 Q455 563 469 569 Q488 569 512 551 ZM182 477 Q186 493 197 487 Q219 469 238 452 Q256 411 268 364 Q271 291 266 190 Q254 151 246 127 Q252 53 252 -25 Q244 -41 229 -64 Q207 -64 191 -60 Q180 -48 180 -39 Q178 16 168 69 Q178 110 195 164 Q199 237 215 364 Q201 395 197 432 Q184 457 182 477 ZM605 707 Q566 760 529 821 Q570 803 617 786 Q646 750 652 700 Q711 721 770 727 Q824 737 871 707 Q873 680 844 670 Q803 672 723 672 Q609 645 486 598 Q430 602 387 590 Q361 602 357 621 Q357 633 365 639 Q400 627 459 631 Q521 655 588 678 Q600 696 605 707 ZM547 370 Q729 416 930 428 Q953 411 971 379 Q969 352 947 329 L881 293 Q859 293 844 301 Q855 336 879 366 Q779 385 680 371 Q627 348 566 354 Q514 327 461 301 Q438 307 426 319 Q424 334 430 344 Q447 360 467 340 Q473 334 547 370 ZM246 764 Q244 774 250 778 L285 778 Q313 756 332 723 L332 692 Q283 635 225 547 Q172 506 125 454 Q92 434 55 405 Q35 405 27 397 L27 418 Q53 438 76 457 Q146 528 184 579 Q205 616 232 659 Q246 676 262 686 Q262 700 268 705 Q268 725 266 746 Q254 758 246 764 ZM336 358 Q359 366 385 346 L418 311 Q410 241 404 207 Q396 192 383 182 Q355 184 352 211 Q357 272 354 309 Q330 332 336 358 ZM680 579 Q605 567 549 524 Q541 495 555 465 Q598 479 639 495 Q680 530 680 579 Z" /><glyph glyph-name="uni50CF" unicode="&#x50cf;" d="M400 809 Q408 815 422 813 Q461 791 486 752 Q527 774 580 784 Q600 760 619 739 Q623 721 613 704 Q564 662 512 600 Q609 606 689 627 Q729 627 758 592 L758 565 L637 444 Q605 444 588 463 Q555 465 531 452 Q492 416 475 352 Q527 336 566 295 Q627 323 693 373 Q705 393 705 420 Q734 426 768 391 Q764 352 725 329 Q658 313 607 280 Q604 266 615 254 Q773 196 992 118 Q992 98 977 86 Q902 75 824 96 Q709 159 602 219 Q584 28 574 -97 Q559 -113 531 -113 Q479 -89 426 -64 Q398 -41 406 -15 Q447 -33 500 -45 Q504 -39 516 -27 Q539 79 525 166 L439 88 Q377 49 328 26 Q283 14 266 37 Q346 67 414 125 Q469 186 482 237 Q412 190 342 149 Q330 149 316 151 Q359 202 449 284 Q467 313 447 329 Q387 278 330 274 Q357 303 389 327 Q438 379 443 430 Q424 428 389 428 Q371 383 340 377 Q326 430 313 485 Q275 496 270 528 Q305 534 342 518 Q371 536 461 580 Q494 651 531 707 Q514 729 486 735 Q445 690 393 625 Q346 614 326 610 Q383 676 414 762 Q389 786 400 809 ZM180 682 Q184 696 197 696 Q242 678 262 631 Q211 536 150 438 Q178 397 199 342 Q176 162 168 63 Q152 43 135 43 Q111 75 102 88 Q127 264 141 371 Q129 407 123 422 Q68 375 6 346 Q47 418 121 489 Q166 563 195 623 Q189 655 180 682 ZM471 543 Q404 537 359 493 Q359 463 375 442 Q422 454 461 471 Q473 489 484 508 Q484 532 471 543 ZM650 580 Q590 582 545 557 Q523 536 547 512 Q586 518 623 516 Q662 543 650 580 Z" /><glyph glyph-name="uni513F" unicode="&#x513f;" d="M209 659 Q215 666 223 666 Q244 670 264 659 Q289 627 313 598 Q295 395 287 321 Q258 245 236 205 Q217 170 180 127 Q113 88 57 34 L37 34 L37 53 Q113 139 172 213 Q178 227 223 338 Q227 405 242 463 Q240 520 248 573 Q223 608 209 637 L209 659 ZM445 674 Q463 686 484 680 Q512 641 535 614 Q516 532 500 440 Q494 381 486 264 Q486 211 492 162 Q500 153 510 129 Q525 120 541 110 Q564 94 580 86 Q623 92 672 82 Q723 96 818 110 Q879 131 891 135 Q916 186 924 209 Q930 225 945 219 Q957 205 963 186 L963 121 Q955 110 945 86 Q934 80 924 67 Q910 59 852 36 Q777 30 715 16 Q643 18 568 22 Q527 36 508 45 Q463 90 445 114 Q436 127 432 149 Q426 243 434 321 Q434 340 441 364 Q436 399 436 420 Q459 504 465 594 Q453 610 438 633 Q434 661 445 674 Z" /><glyph glyph-name="uni5148" unicode="&#x5148;" d="M455 321 Q467 340 492 329 Q508 319 535 299 Q506 192 510 43 Q516 18 527 -7 Q545 -25 568 -37 Q645 -48 727 -43 Q756 -35 818 -15 Q877 49 932 118 Q932 43 928 4 Q914 -23 879 -58 Q813 -91 744 -103 L623 -103 Q553 -89 504 -66 Q463 -27 459 26 Q457 143 471 250 Q463 274 455 321 ZM160 629 Q205 625 260 575 Q275 541 266 498 Q242 450 215 403 Q178 385 156 407 Q189 455 217 520 Q182 580 160 629 ZM377 787 Q383 805 404 799 Q439 782 463 741 Q465 682 459 608 Q479 608 527 618 Q549 600 537 571 Q490 547 459 516 Q438 459 455 405 Q541 444 650 448 Q678 440 703 414 Q707 387 691 370 Q633 375 586 373 Q467 362 359 321 Q375 262 357 200 Q330 131 293 67 Q264 34 205 -29 Q174 -45 131 -54 Q113 -43 113 -25 Q178 2 232 79 Q283 155 309 243 Q313 274 291 295 Q227 268 168 243 Q107 248 66 262 Q63 282 76 287 Q141 311 221 317 Q305 342 398 391 Q398 436 391 498 Q342 487 320 524 Q363 539 404 569 Q406 637 406 707 Q385 750 377 787 Z" /><glyph glyph-name="uni5149" unicode="&#x5149;" d="M320 756 Q318 764 318 768 Q320 772 326 772 L338 772 Q369 754 400 739 Q406 735 414 723 Q412 682 408 604 Q408 549 410 516 Q402 500 402 479 Q410 475 416 475 Q479 549 520 616 Q521 633 535 649 Q535 672 521 694 Q516 709 523 719 Q535 723 543 717 Q572 682 600 649 L600 631 Q568 580 535 539 Q473 479 406 430 Q396 424 406 414 Q461 430 516 448 Q539 450 590 450 Q602 450 629 436 Q641 426 654 407 Q654 389 639 377 Q611 377 588 383 Q504 379 430 366 Q367 344 299 313 Q314 289 322 276 Q324 252 324 231 Q309 204 293 155 Q268 125 246 90 Q203 47 146 6 Q129 6 107 -7 Q92 -7 76 -4 Q64 6 59 16 Q53 28 63 37 Q88 37 104 34 Q127 47 148 63 Q174 94 221 149 Q240 202 264 227 Q264 246 262 266 L238 286 Q152 262 113 250 Q100 250 84 252 Q64 262 49 278 Q43 291 53 295 Q74 293 123 293 Q227 336 330 368 Q332 377 340 385 Q350 561 350 698 Q330 727 320 756 ZM418 323 Q455 334 484 319 Q500 311 510 295 L510 268 Q494 211 484 137 L484 67 Q492 53 498 39 Q533 24 594 4 Q633 4 670 -7 L754 -7 Q809 12 873 28 L938 98 L949 98 Q953 47 953 16 Q949 10 945 -2 Q910 -29 889 -43 Q824 -58 760 -72 Q695 -72 629 -70 Q564 -54 502 -29 Q477 -21 449 12 Q438 36 438 55 Q434 135 439 204 Q445 217 457 248 L457 268 Q426 295 412 307 Q412 319 418 323 ZM189 522 Q234 543 287 582 L301 582 L301 571 Q283 539 264 516 Q252 510 240 498 Q205 467 174 430 L156 430 Q143 436 137 448 Q135 471 127 485 L127 541 Q127 553 143 549 Q146 543 172 522 L189 522 Z" /><glyph glyph-name="uni516C" unicode="&#x516c;" d="M477 455 Q482 475 502 469 Q533 469 555 438 Q549 381 521 332 Q479 282 430 205 Q424 194 439 188 Q533 227 617 274 Q590 315 607 352 Q629 352 654 336 Q713 266 760 184 Q775 121 779 86 Q775 37 742 14 Q680 127 639 243 Q496 143 334 77 Q297 88 281 110 Q293 157 348 157 Q422 280 482 403 Q477 432 477 455 ZM348 641 Q391 662 420 610 Q414 575 400 545 Q281 426 158 340 Q146 352 152 366 Q266 469 344 590 Q336 620 348 641 ZM607 659 Q588 676 605 688 Q707 688 807 664 Q832 653 850 618 Q850 584 846 569 Q830 547 807 555 Q719 616 607 659 Z" /><glyph glyph-name="uni5171" unicode="&#x5171;" d="M492 803 Q492 809 498 809 L520 809 Q531 803 541 795 Q553 766 576 729 Q572 690 564 604 Q564 602 570 590 Q596 600 633 600 Q643 598 662 590 L676 577 L676 555 Q666 539 654 526 Q639 528 617 528 Q588 522 576 514 Q564 508 561 495 Q549 432 533 321 Q523 307 523 296.5 Q523 286 543 280 Q633 299 680 311 Q748 319 820 323 Q883 323 918 321 Q930 321 943.5 311 Q957 301 965 287 L965 250 Q945 235 941 231 Q904 237 883 250 Q730 256 615 254 Q598 254 586 248 Q557 248 527 250 Q508 250 496 238.5 Q484 227 479 223 Q445 227 428 221 Q412 213 385 202 Q314 186 281 178 Q258 168 244 159 Q225 155 217 155 L170 135 L102 135 Q55 143 35 145 L35 164 Q37 172 51 176 Q145 196 225 204 Q283 219 314 227 Q322 313 322 350 Q307 420 299 454 Q293 459 293 461 Q268 465 221 469 Q209 473 195 479 L195 493 Q223 498 254 496 Q270 498 289 512 Q289 526 287 541 Q266 579 244 618 L244 629 Q254 645 271 635 Q314 596 338 579 Q346 549 348 524 Q359 518 375 518 Q457 541 500 549 Q504 555 512 563 Q516 633 518 698 Q506 739 494 768 Q488 787 492 803 ZM494 487 Q422 473 369 454 Q365 454 365 448 Q365 409 371 377 L371 293 Q365 270 365 246 Q365 241 369 235 L389 235 Q406 252 432 252 L461 252 Q473 264 479 276 Q494 418 500 477 L494 487 ZM297 145 Q303 157 320 151 Q330 149 354 141 Q359 135 365 123 Q365 92 350 51 L299 0 Q225 -58 186 -88 Q164 -91 139 -107 Q121 -107 102 -105 L102 -88 Q119 -76 141 -68 Q189 -29 230 12 Q270 55 299 98 Q293 121 297 145 ZM586 151 Q590 164 605 159 Q672 114 734 86 Q770 47 791 26 Q791 12 805 -15 L805 -62 L785 -82 L766 -82 Q746 -60 744 -43 Q699 20 662 61 Q643 75 621 88 Q598 112 586 135 L586 151 Z" /></font>
</defs>
</svg>
