<?xml version="1.0" standalone="no"?>
<!DOCTYPE svg PUBLIC "-//W3C//DTD SVG 20010904//EN"
 "http://www.w3.org/TR/2001/REC-SVG-20010904/DTD/svg10.dtd">
<svg version="1.0" xmlns="http://www.w3.org/2000/svg"
 width="512.000000pt" height="512.000000pt" viewBox="0 0 512.000000 512.000000"
 preserveAspectRatio="xMidYMid meet">
<metadata>
Created by potrace 1.11, written by Peter Selinger 2001-2013
</metadata>
<g transform="translate(0.000000,512.000000) scale(0.100000,-0.100000)"
fill="#000000" stroke="none">
<path d="M899 5116 c-2 -2 -27 -6 -55 -10 -108 -12 -282 -82 -388 -156 -185
-126 -325 -336 -383 -569 -15 -59 -17 -189 -19 -1191 -3 -1206 -3 -1214 47
-1363 54 -161 172 -330 305 -436 138 -110 327 -187 504 -205 30 -3 165 -6 300
-6 135 0 251 -4 258 -9 11 -7 14 -106 14 -532 0 -482 1 -527 17 -565 28 -61
99 -89 166 -64 26 10 57 40 165 156 30 33 117 125 193 206 76 81 148 157 159
170 11 13 56 61 101 108 45 47 136 143 202 214 66 71 161 171 211 224 l91 95
729 2 c401 1 740 5 754 8 14 4 49 12 77 18 146 30 336 138 453 258 86 88 164
214 209 338 57 156 57 157 56 1368 -1 611 -5 1128 -9 1150 -32 167 -86 291
-186 423 -87 116 -216 223 -332 275 -21 9 -53 24 -70 32 -18 8 -69 25 -113 37
l-80 23 -1686 3 c-927 1 -1687 1 -1690 -2z"/>
</g>
</svg>
